<svg xmlns="http://www.w3.org/2000/svg" xmlns:xlink="http://www.w3.org/1999/xlink" width="378" zoomAndPan="magnify" viewBox="0 0 283.5 74.249996" height="99" preserveAspectRatio="xMidYMid meet" version="1.0"><path fill="#000000" d="M 93.757812 7.617188 L 93.757812 38.914062 C 93.757812 42.984375 91.09375 45.402344 86.777344 45.402344 C 82.464844 45.402344 80.179688 42.222656 80.179688 38.785156 L 80.179688 33.1875 L 68.753906 33.1875 L 68.753906 38.914062 C 68.753906 44.765625 70.53125 55.199219 86.90625 55.199219 C 103.277344 55.199219 105.5625 44.003906 105.5625 38.660156 L 105.5625 7.617188 Z M 123.835938 20.59375 C 113.050781 20.59375 108.226562 30.515625 108.226562 39.042969 C 108.226562 47.5625 113.6875 55.835938 124.855469 55.835938 C 134.628906 55.960938 141.101562 49.601562 141.101562 44.890625 L 130.3125 44.890625 C 130.3125 44.890625 129.042969 47.945312 125.234375 47.945312 C 121.425781 47.945312 119.269531 45.785156 119.269531 40.570312 L 141.226562 40.570312 C 141.226562 24.15625 133.105469 20.59375 123.835938 20.59375 Z M 159.125 20.59375 C 148.332031 20.59375 143.511719 30.515625 143.511719 39.042969 C 143.511719 47.5625 148.972656 55.835938 160.140625 55.835938 C 169.910156 55.960938 176.382812 49.601562 176.382812 44.890625 L 165.597656 44.890625 C 165.597656 44.890625 164.324219 47.945312 160.519531 47.945312 C 156.710938 47.945312 154.554688 45.785156 154.554688 40.570312 L 176.511719 40.570312 C 176.511719 24.15625 168.386719 20.59375 159.125 20.59375 Z M 199.976562 20.976562 C 194.515625 20.976562 192.464844 23.519531 191.726562 24.410156 C 190.875 25.4375 190.597656 26.023438 190.203125 26.867188 L 190.203125 21.867188 L 179.289062 21.867188 L 179.289062 65.757812 L 190.332031 65.757812 L 190.332031 52.144531 C 190.789062 52.75 191.046875 53.039062 191.855469 53.671875 C 193.121094 54.660156 195.28125 56.34375 200.101562 56.34375 C 208.859375 56.34375 213.9375 48.710938 213.9375 38.277344 C 213.9375 24.792969 205.433594 20.976562 199.976562 20.976562 Z M 124.601562 27.71875 C 128.664062 27.71875 130.4375 30.773438 130.4375 33.953125 L 119.269531 33.953125 C 119.269531 30.519531 120.667969 27.71875 124.601562 27.71875 Z M 159.886719 27.71875 C 163.949219 27.71875 165.722656 30.773438 165.722656 33.953125 L 154.554688 33.953125 C 154.554688 30.519531 155.949219 27.71875 159.886719 27.71875 Z M 196.167969 29.5 C 201.753906 29.5 202.769531 33.824219 202.769531 38.277344 C 202.769531 42.730469 202.007812 48.582031 196.675781 48.582031 C 191.347656 48.582031 189.949219 45.148438 190.074219 38.660156 C 190.203125 32.171875 192.742188 29.5 196.167969 29.5 Z M 196.167969 29.5 " fill-opacity="1" fill-rule="nonzero"/></svg>