<?xml version="1.0" encoding="utf-8"?>
<!-- Generator: Adobe Illustrator 24.3.0, SVG Export Plug-In . SVG Version: 6.00 Build 0)  -->
<svg version="1.1" id="Layer_1" xmlns="http://www.w3.org/2000/svg" xmlns:xlink="http://www.w3.org/1999/xlink" x="0px" y="0px"
	 viewBox="0 0 64 64" style="enable-background:new 0 0 64 64;" xml:space="preserve">
<style type="text/css">
	.st0{fill:#FFFFFF;}
</style>
<g>
	<path class="st0" d="M19.47,47.21c-1.32,0-2.39,1.07-2.39,2.39c0,0.07,0,0.15,0.02,0.23c0.11,1.23,1.12,2.16,2.37,2.16
		s2.26-0.92,2.38-2.16c0.01-0.09,0.02-0.16,0.02-0.23C21.86,48.28,20.79,47.21,19.47,47.21z M19.47,50.49
		c-0.47,0-0.85-0.35-0.89-0.89c0-0.49,0.4-0.89,0.89-0.89c0.12,0,0.24,0.03,0.34,0.07c0.31,0.13,0.54,0.44,0.55,0.82l-0.01,0.08
		C20.32,50.14,19.94,50.49,19.47,50.49z"/>
	<path class="st0" d="M44.36,47.21c-1.32,0-2.39,1.07-2.39,2.39c0,0.07,0,0.15,0.02,0.23c0.11,1.23,1.12,2.16,2.37,2.16
		s2.26-0.92,2.38-2.16c0.01-0.09,0.02-0.16,0.02-0.23C46.75,48.28,45.68,47.21,44.36,47.21z M45.24,49.68
		c-0.03,0.46-0.41,0.81-0.88,0.81s-0.85-0.35-0.89-0.89c0-0.49,0.4-0.89,0.89-0.89c0.48,0,0.88,0.39,0.89,0.89L45.24,49.68z"/>
	<path class="st0" d="M31.88,16.84h-2.05v1.5h4.9v-4.9h-1.5v2.77c-2.1-4.3-6.54-7.12-11.39-7.12v1.5
		C26.11,10.59,30.02,13.07,31.88,16.84z"/>
	<path class="st0" d="M43.81,40.17v-2.13c0-1.65-1.34-2.99-2.99-2.99H29.86c-1.65,0-2.99,1.34-2.99,2.99h1.5
		c0-0.82,0.67-1.49,1.49-1.49h10.96c0.82,0,1.49,0.67,1.49,1.49v2.13c0,0.82-0.67,1.48-1.49,1.48h-7.98l1.56-1.56l-1.06-1.06
		l-3.41,3.41l3.4,3.51l1.08-1.04l-1.71-1.76h8.12C42.47,43.15,43.81,41.81,43.81,40.17z"/>
	<path class="st0" d="M16.28,12.08v2.21h1.5v-4.9h-4.9v1.5h2.47c-3.82,2.26-6.2,6.35-6.2,10.9h1.5
		C10.65,17.71,12.82,14.05,16.28,12.08z"/>
	<path class="st0" d="M51.3,50.48c2.02,0,3.66-1.64,3.66-3.66v-4.24c0-1.14-0.53-2.2-1.45-2.91l-4.79-3.64
		c-0.2-0.16-0.36-0.33-0.48-0.5L44.2,29.7c-0.68-0.98-1.8-1.56-3.01-1.56h-8.37c1.12-1.93,1.71-4.1,1.71-6.36h-1.5
		c0,2.42-0.76,4.72-2.2,6.66l0,0c-1.08,1.44-2.45,2.58-4.03,3.36v-2.58h-1.5v4.9h4.9v-1.5h-1.78c1.28-0.78,2.43-1.78,3.38-2.99h9.39
		c0.71,0,1.38,0.34,1.77,0.92l4.05,5.82c0.2,0.29,0.46,0.57,0.8,0.83l4.8,3.65c0.54,0.42,0.86,1.04,0.86,1.71v4.24
		c0,1.19-0.97,2.16-2.16,2.16h-1.69c-0.01-0.07-0.03-0.13-0.04-0.2c-0.03-0.18-0.07-0.35-0.11-0.52c-0.04-0.16-0.09-0.31-0.14-0.46
		c-0.06-0.16-0.12-0.32-0.2-0.47c-0.07-0.15-0.15-0.29-0.23-0.43c-0.08-0.14-0.17-0.28-0.26-0.4c-0.1-0.14-0.22-0.27-0.33-0.4
		c-0.1-0.11-0.2-0.23-0.31-0.33c-0.14-0.13-0.28-0.24-0.43-0.36c-0.11-0.08-0.21-0.17-0.33-0.25c-0.17-0.11-0.36-0.2-0.55-0.3
		c-0.11-0.05-0.21-0.12-0.33-0.16c-0.22-0.09-0.46-0.16-0.69-0.22c-0.09-0.02-0.18-0.06-0.27-0.08c-0.33-0.07-0.68-0.1-1.03-0.1l0,0
		l0,0c-0.03,0-0.05,0.01-0.08,0.01c-0.32,0.01-0.63,0.04-0.94,0.09c-0.14,0.03-0.27,0.08-0.41,0.12c-0.18,0.05-0.37,0.1-0.55,0.17
		c-0.15,0.06-0.29,0.14-0.44,0.22c-0.15,0.08-0.3,0.15-0.43,0.24c-0.14,0.09-0.28,0.2-0.41,0.31c-0.12,0.09-0.24,0.19-0.35,0.29
		c-0.13,0.12-0.25,0.25-0.36,0.39c-0.1,0.11-0.19,0.22-0.28,0.34c-0.11,0.15-0.2,0.3-0.3,0.46c-0.07,0.12-0.14,0.25-0.21,0.38
		c-0.08,0.17-0.15,0.34-0.21,0.52c-0.05,0.13-0.09,0.27-0.13,0.41c-0.05,0.18-0.09,0.37-0.12,0.56c-0.01,0.06-0.03,0.12-0.04,0.18
		H24.74c-0.01-0.08-0.04-0.16-0.05-0.24c-0.02-0.15-0.06-0.3-0.09-0.44c-0.05-0.18-0.1-0.36-0.17-0.54
		c-0.05-0.14-0.11-0.27-0.17-0.41c-0.08-0.17-0.17-0.33-0.27-0.49c-0.07-0.12-0.15-0.25-0.23-0.36c-0.11-0.15-0.23-0.29-0.35-0.43
		c-0.09-0.11-0.19-0.21-0.29-0.31c-0.14-0.13-0.29-0.25-0.44-0.36c-0.11-0.08-0.22-0.17-0.33-0.25c-0.17-0.11-0.35-0.2-0.52-0.28
		c-0.12-0.06-0.23-0.13-0.35-0.18c-0.2-0.08-0.42-0.14-0.64-0.2c-0.11-0.03-0.21-0.07-0.32-0.09c-0.33-0.07-0.68-0.1-1.03-0.1
		s-0.7,0.04-1.03,0.1c-0.11,0.02-0.21,0.06-0.32,0.09c-0.22,0.06-0.44,0.12-0.64,0.2c-0.12,0.05-0.23,0.12-0.35,0.17
		c-0.18,0.09-0.36,0.18-0.53,0.29c-0.11,0.07-0.22,0.16-0.33,0.24c-0.15,0.12-0.3,0.23-0.44,0.37c-0.1,0.1-0.19,0.2-0.29,0.31
		c-0.13,0.14-0.25,0.28-0.36,0.43c-0.08,0.12-0.16,0.24-0.23,0.36c-0.1,0.16-0.19,0.32-0.27,0.49c-0.06,0.13-0.12,0.27-0.17,0.41
		c-0.06,0.17-0.12,0.35-0.17,0.54c-0.04,0.15-0.07,0.29-0.09,0.44c-0.01,0.08-0.04,0.16-0.05,0.24h-1.43
		c-1.19,0-2.16-0.97-2.16-2.16v-5.93c0-1.19,0.97-2.16,2.16-2.16h3.86c1.05,0,2.05-0.45,2.74-1.24l3.95-4.5l-1.63-0.02
		c-4.29-0.05-8.17-2.59-9.97-6.41h2.21v-1.5h-4.9v4.9h1.5v-2.43c1.88,3.69,5.49,6.26,9.6,6.82l-1.88,2.14
		c-0.41,0.47-1,0.73-1.62,0.73h-3.86c-2.02,0-3.66,1.64-3.66,3.66v5.93c0,2.02,1.64,3.66,3.66,3.66h1.49
		c0.19,1.13,0.72,2.14,1.51,2.91h0.04v0.02v0.02c0.95,0.9,2.22,1.46,3.61,1.47v0.01h14.31v-1.5H23.14c0.8-0.77,1.34-1.79,1.53-2.93
		h14.49c0.19,1.13,0.73,2.16,1.53,2.93H37.9v1.5h16.8v-1.5h-6.68c0.8-0.77,1.34-1.79,1.53-2.93h1.75V50.48z M19.47,53.4
		c-2.04,0-3.74-1.66-3.79-3.69l0.01-0.02l-0.02-0.09c0-2.1,1.7-3.8,3.8-3.8s3.8,1.7,3.8,3.8c0,0.01,0,0.01,0,0.02l-0.01,0.09
		C23.21,51.75,21.51,53.4,19.47,53.4z M48.15,49.71c-0.05,2.03-1.75,3.69-3.79,3.69s-3.74-1.66-3.79-3.69l0.01-0.02l-0.02-0.07
		c0-0.01,0-0.01,0-0.02c0-2.09,1.7-3.8,3.8-3.8c0.49,0,0.96,0.1,1.4,0.27c0.03,0.01,0.05,0.01,0.08,0.02
		c0.02,0.01,0.04,0.03,0.07,0.04c1.32,0.59,2.25,1.92,2.25,3.47c0,0.01,0,0.02,0.01,0.04L48.15,49.71z"/>
	<path class="st0" d="M17.7,18.44c-0.1-0.38-0.21-0.76-0.32-1.16c-0.21,0.06-0.39,0.11-0.57,0.17c0,0.33,0,0.62,0,0.95
		c-0.34-0.12-0.66-0.24-0.99-0.36c-0.1,0.18-0.2,0.33-0.29,0.49c0.27,0.24,0.54,0.46,0.82,0.7c-0.19,0.1-0.33,0.18-0.47,0.26
		c-0.43,0.24-0.44,0.3-0.17,0.77c0.36-0.1,0.73-0.16,1.08-0.3c0.37-0.14,0.66-0.05,0.95,0.23c-0.3,0.17-0.58,0.33-0.87,0.49
		c-0.46,0.25-0.48,0.31-0.22,0.77c0.02,0,0.04,0,0.06,0c0.66-0.18,1.32-0.36,1.98-0.53c0.11-0.03,0.25-0.06,0.34-0.01
		c0.27,0.13,0.56,0.26,0.76,0.46c0.1,0.1,0.01,0.38,0,0.58c0,0.01,0,0.02,0,0.03c0.17,0.41-0.12,0.54-0.4,0.72
		c-0.31,0.21-0.59,0.23-0.93,0.12c-0.51-0.16-1.03-0.28-1.55-0.42c-0.13-0.04-0.3-0.14-0.36,0.1c-0.04,0.18-0.19,0.37,0.11,0.51
		c0.36,0.17,0.71,0.39,1.07,0.59c-0.28,0.26-0.55,0.37-0.92,0.24c-0.37-0.13-0.76-0.21-1.13-0.31c-0.23,0.53-0.23,0.53,0.24,0.8
		c0.13,0.07,0.26,0.15,0.41,0.24c-0.29,0.25-0.55,0.48-0.82,0.7c0.11,0.18,0.2,0.34,0.3,0.49c0.34-0.12,0.65-0.24,1-0.36
		c0,0.21,0,0.36,0,0.51c-0.01,0.51,0,0.53,0.58,0.57c0.11-0.39,0.23-0.79,0.31-1.19c0.07-0.36,0.32-0.49,0.64-0.6
		c0,0.36,0,0.69,0,1.02c0,0.52,0.02,0.54,0.57,0.55c0.15-0.56,0.33-1.12,0.45-1.7c0.09-0.43,0.29-0.71,0.69-0.92
		c0.29-0.15,0.52-0.24,0.79,0.01c0.11,0.1,0.29,0.12,0.37,0.22c0.12,0.16-0.01,0.77-0.17,0.92c-0.51,0.51-1.03,1.02-1.54,1.53
		c0.39,0.46,0.39,0.46,0.85,0.18c0.27-0.16,0.54-0.32,0.84-0.5c0.06,0.38,0.05,0.66-0.25,0.9c-0.32,0.26-0.59,0.58-0.88,0.86
		c0.39,0.44,0.39,0.44,0.85,0.16c0.12-0.07,0.25-0.14,0.4-0.23c0.05,0.3,0.1,0.54,0.12,0.78c0.02,0.25,0.15,0.28,0.36,0.28
		c0.2,0,0.32-0.05,0.33-0.28c0.02-0.25,0.08-0.5,0.13-0.78c0.19,0.11,0.36,0.18,0.49,0.3c0.24,0.19,0.43,0.18,0.61-0.08
		c0.03-0.05,0.08-0.09,0.16-0.18c-0.3-0.29-0.58-0.59-0.89-0.84c-0.3-0.24-0.31-0.52-0.23-0.89c0.31,0.19,0.59,0.35,0.87,0.52
		c0.41,0.25,0.41,0.25,0.75-0.12c0.02-0.02,0.03-0.06,0.05-0.1c-0.51-0.51-1.02-1.01-1.52-1.53c-0.1-0.1-0.15-0.27-0.18-0.41
		c-0.07-0.35-0.01-0.65,0.42-0.75c0.08-0.02,0.14-0.1,0.21-0.14c0.05-0.03,0.13-0.06,0.17-0.04c0.41,0.27,0.94,0.38,1.04,1.01
		c0.1,0.61,0.31,1.21,0.47,1.81c0.6-0.1,0.59-0.1,0.57-0.63c-0.01-0.31,0-0.63,0-0.97c0.34,0.14,0.59,0.28,0.65,0.66
		c0.06,0.39,0.21,0.78,0.32,1.16c0.56-0.07,0.56-0.07,0.56-0.57c0-0.16,0-0.32,0-0.51c0.36,0.13,0.69,0.25,1.02,0.36
		c0.1-0.18,0.19-0.34,0.28-0.51c-0.28-0.23-0.54-0.45-0.82-0.69c0.16-0.09,0.29-0.17,0.42-0.24c0.48-0.27,0.48-0.28,0.23-0.79
		c-0.37,0.1-0.75,0.17-1.1,0.3c-0.37,0.13-0.65,0.03-0.94-0.24c0.37-0.21,0.72-0.41,1.08-0.6c0.17-0.09,0.21-0.19,0.15-0.35
		c-0.04-0.1-0.06-0.2-0.1-0.33c-0.6,0.16-1.2,0.3-1.77,0.48c-0.4,0.13-0.72,0.1-1.08-0.14c-0.24-0.17-0.46-0.28-0.34-0.63
		c0.05-0.13-0.01-0.29-0.02-0.44c0-0.07-0.03-0.16,0-0.22c0.09-0.18,0.93-0.51,1.14-0.45c0.69,0.18,1.38,0.37,2.08,0.56
		c0.05-0.21,0.1-0.38,0.14-0.57c-0.43-0.25-0.85-0.49-1.27-0.72c0.32-0.34,0.65-0.34,1.03-0.21c0.33,0.12,0.68,0.19,1.01,0.27
		c0.25-0.51,0.24-0.53-0.21-0.78c-0.14-0.08-0.27-0.15-0.44-0.25c0.29-0.24,0.55-0.46,0.81-0.67c-0.23-0.55-0.23-0.55-0.73-0.36
		c-0.17,0.07-0.35,0.13-0.56,0.21c0-0.2,0-0.35,0-0.5c0.01-0.51,0.01-0.51-0.53-0.59c-0.01,0.02-0.04,0.03-0.04,0.05
		c-0.11,0.38-0.25,0.76-0.31,1.14c-0.07,0.39-0.33,0.51-0.65,0.62c0-0.08,0-0.13,0-0.19c0.01-0.28,0.01-0.56,0.02-0.84
		c0.02-0.5-0.02-0.54-0.58-0.55c-0.16,0.57-0.34,1.14-0.46,1.73c-0.08,0.43-0.3,0.68-0.68,0.89c-0.29,0.15-0.52,0.25-0.78-0.01
		c-0.1-0.1-0.29-0.12-0.36-0.23c-0.13-0.19,0.01-0.77,0.19-0.95c0.5-0.5,1-1,1.52-1.51c-0.16-0.15-0.3-0.27-0.45-0.41
		c-0.4,0.24-0.81,0.48-1.24,0.74c-0.08-0.37-0.06-0.65,0.24-0.89c0.31-0.26,0.58-0.56,0.85-0.82c-0.15-0.18-0.27-0.32-0.39-0.46
		c-0.28,0.17-0.54,0.32-0.83,0.48c-0.07-0.37-0.13-0.7-0.19-1.03c-0.2,0-0.38,0-0.58,0c-0.06,0.34-0.12,0.67-0.19,1.04
		c-0.3-0.18-0.56-0.33-0.81-0.48c-0.16,0.14-0.29,0.26-0.45,0.42c0.33,0.32,0.62,0.63,0.95,0.91c0.29,0.24,0.26,0.52,0.2,0.85
		c-0.44-0.27-0.85-0.51-1.27-0.76c-0.15,0.14-0.28,0.27-0.43,0.42c0.54,0.54,1.06,1.06,1.58,1.58c0.13,0.13,0.24,0.84,0.12,0.93
		c-0.22,0.15-0.45,0.3-0.7,0.38c-0.1,0.03-0.26-0.12-0.39-0.17c-0.45-0.18-0.66-0.5-0.75-0.97c-0.11-0.56-0.29-1.11-0.44-1.66
		c-0.57,0.04-0.57,0.04-0.57,0.55c0,0.34,0,0.68,0,1.02C17.83,18.91,17.83,18.91,17.7,18.44z"/>
	<rect x="10.37" y="53.41" class="st0" width="1.31" height="1.5"/>
	<rect x="35.25" y="53.41" class="st0" width="1.15" height="1.5"/>
	<rect x="13.18" y="53.41" class="st0" width="1.15" height="1.5"/>
</g>
</svg>
