<?xml version="1.0" encoding="utf-8"?>
<!-- Generator: Adobe Illustrator 24.3.0, SVG Export Plug-In . SVG Version: 6.00 Build 0)  -->
<svg version="1.1" id="Layer_1" xmlns="http://www.w3.org/2000/svg" xmlns:xlink="http://www.w3.org/1999/xlink" x="0px" y="0px"
	 viewBox="0 0 64 64" style="enable-background:new 0 0 64 64;" xml:space="preserve">
<style type="text/css">
	.st0{fill:#FFFFFF;}
</style>
<g>
	<path class="st0" d="M41.81,29.44c-1.91,0-3.78-0.77-5.13-2.12c-1.37-1.37-2.13-3.19-2.13-5.13c0-4.01,3.25-7.27,7.26-7.27
		s7.27,3.26,7.27,7.26c0,1.94-0.75,3.76-2.12,5.14S43.76,29.44,41.81,29.44L41.81,29.44z M41.81,16.59c-1.5,0-2.91,0.58-3.96,1.64
		c-1.05,1.04-1.65,2.49-1.65,3.98s0.58,2.9,1.64,3.96c1.06,1.06,2.47,1.65,3.97,1.65s2.91-0.58,3.96-1.64
		c2.19-2.19,2.19-5.74,0.01-7.93C44.72,17.17,43.31,16.59,41.81,16.59z"/>
	<path class="st0" d="M14.71,47.98c-0.37,0-0.7,0.14-0.95,0.39s-0.38,0.58-0.38,0.93c0,0.72,0.59,1.31,1.31,1.31v0.3v-0.3
		c0.35,0,0.68-0.14,0.93-0.39S16,49.64,16,49.29s-0.14-0.67-0.38-0.92C15.38,48.12,15.05,47.98,14.71,47.98z"/>
	<path class="st0" d="M14.68,56.46c-1.44,0-2.83-0.43-4.02-1.24c-1.58-1.07-2.64-2.7-3-4.58s0.04-3.78,1.11-5.36l20.22-30.15
		c0.68-1.23,1.51-2.34,2.49-3.31c1-1,2.13-1.84,3.37-2.51c2.14-1.16,4.55-1.78,6.97-1.78c5.38,0,10.31,2.93,12.88,7.66
		c1.87,3.44,2.28,7.39,1.17,11.14s-3.61,6.84-7.05,8.71l-30.1,20.18C17.52,56.03,16.13,56.46,14.68,56.46L14.68,56.46z M14.68,43.82
		c-1.47,0-2.85,0.57-3.88,1.61c-1.04,1.04-1.61,2.42-1.62,3.89c0,1.47,0.57,2.85,1.61,3.89s2.42,1.61,3.89,1.61s2.85-0.57,3.89-1.61
		c2.14-2.14,2.14-5.63,0-7.77C17.54,44.39,16.16,43.82,14.68,43.82z M14.71,42.17c0.44,0,0.88,0.04,1.3,0.12
		c3.86,0.72,6.42,4.44,5.7,8.31l-0.13,0.7l21.65-14.48h-1.42c-3.93,0-7.59-1.52-10.35-4.28c-2.84-2.84-4.4-6.77-4.27-10.78
		l0.03-1.04l-14.55,21.7l0.71-0.13c0.42-0.08,0.84-0.12,1.26-0.12H14.71z M41.82,9.17c-3.47,0-6.74,1.35-9.19,3.81
		c-5.07,5.06-5.07,13.31-0.01,18.38c2.46,2.46,5.73,3.81,9.2,3.81s6.73-1.35,9.19-3.81c5.07-5.07,5.07-13.32,0-18.38
		C48.56,10.53,45.29,9.17,41.82,9.17z"/>
	<path class="st0" d="M48.44,43.87c-0.45,0-0.82,0.37-0.82,0.82s0.37,0.82,0.82,0.82h7.19c0.45,0,0.82-0.37,0.82-0.82
		s-0.37-0.82-0.82-0.82H48.44z"/>
	<path class="st0" d="M55.61,49.34h-7.17c-0.43,0.03-0.77,0.43-0.74,0.88c0.03,0.4,0.36,0.73,0.76,0.76h7.16
		c0.22-0.02,0.41-0.12,0.55-0.28c0.14-0.17,0.21-0.38,0.2-0.6C56.34,49.7,56.02,49.37,55.61,49.34z"/>
	<path class="st0" d="M48.44,54.82c-0.45,0-0.82,0.37-0.82,0.82s0.37,0.82,0.82,0.82h7.19c0.45,0,0.82-0.37,0.82-0.82
		s-0.37-0.82-0.82-0.82H48.44z"/>
</g>
</svg>
