<?xml version="1.0" encoding="utf-8"?>
<!-- Generator: Adobe Illustrator 24.3.0, SVG Export Plug-In . SVG Version: 6.00 Build 0)  -->
<svg version="1.1" id="Layer_1" xmlns="http://www.w3.org/2000/svg" xmlns:xlink="http://www.w3.org/1999/xlink" x="0px" y="0px"
	 viewBox="0 0 64 64" style="enable-background:new 0 0 64 64;" xml:space="preserve">
<style type="text/css">
	.st0{fill:#FFFFFF;}
</style>
<g>
	<path class="st0" d="M50.7,36.95V10.31c0-1.23-1-2.23-2.23-2.23H37.78c-0.2-1.02-1.11-1.8-2.2-1.8H24.15
		c-1.08,0-1.98,0.78-2.19,1.8H10.51c-1.23,0-2.23,1-2.23,2.23v45.16c0,1.24,1,2.24,2.23,2.24h33.85c2.14,0,4.21-0.59,5.98-1.71
		c3.37-2.08,5.38-5.69,5.38-9.65C55.72,42.54,53.84,39.07,50.7,36.95z M49.2,10.31v25.76c-0.7-0.33-1.43-0.59-2.19-0.77V14.02
		c0-1.24-1-2.24-2.24-2.24h-6.95v-2.2h10.65C48.87,9.58,49.2,9.91,49.2,10.31z M21.93,13.27c0,0.04,0.02,0.07,0.02,0.11
		c0.01,0.06,0.02,0.13,0.04,0.19c0.02,0.08,0.04,0.15,0.07,0.23c0.02,0.06,0.04,0.12,0.07,0.17c0.03,0.07,0.07,0.14,0.11,0.21
		c0.03,0.05,0.06,0.1,0.1,0.15c0.05,0.06,0.1,0.12,0.15,0.18c0.04,0.04,0.08,0.09,0.12,0.13c0.06,0.06,0.12,0.1,0.19,0.15
		c0.05,0.04,0.09,0.07,0.14,0.1c0.07,0.05,0.15,0.08,0.22,0.12c0.05,0.02,0.1,0.05,0.15,0.07c0.09,0.04,0.18,0.06,0.27,0.08
		c0.05,0.01,0.09,0.03,0.14,0.04c0.14,0.03,0.29,0.04,0.44,0.04h11.43c0.15,0,0.3-0.02,0.44-0.04c0.05-0.01,0.09-0.03,0.14-0.04
		c0.09-0.02,0.18-0.05,0.27-0.08c0.05-0.02,0.1-0.05,0.15-0.08c0.07-0.04,0.15-0.07,0.22-0.12c0.05-0.03,0.1-0.07,0.14-0.11
		c0.06-0.05,0.12-0.1,0.18-0.15c0.04-0.04,0.08-0.09,0.12-0.13c0.05-0.06,0.1-0.12,0.15-0.18c0.04-0.05,0.07-0.1,0.1-0.16
		c0.04-0.07,0.08-0.13,0.11-0.2c0.03-0.06,0.05-0.11,0.07-0.17c0.03-0.07,0.05-0.15,0.07-0.23c0.02-0.06,0.03-0.12,0.04-0.19
		c0.01-0.04,0.02-0.07,0.02-0.11h6.96c0.41,0,0.74,0.33,0.74,0.74v21.05C38.78,34.39,33,39.7,33,46.35c0,2.19,0.65,4.33,1.84,6.16
		H14.21c-0.41,0-0.74-0.33-0.74-0.73V14.02c0-0.41,0.33-0.74,0.74-0.74h7.72V13.27z M24.15,7.78h11.43c0.41,0,0.74,0.33,0.74,0.73
		v3.26v1.26c0,0.4-0.33,0.73-0.74,0.73H24.15c-0.41,0-0.73-0.32-0.73-0.73v-1.26V8.52C23.42,8.11,23.74,7.78,24.15,7.78z
		 M10.51,56.22c-0.4,0-0.73-0.33-0.73-0.74V10.31c0-0.4,0.33-0.73,0.73-0.73h11.41v2.19h-7.71c-1.24,0-2.24,1-2.24,2.24v37.77
		c0,1.23,1,2.23,2.24,2.23H36c0.8,0.88,1.73,1.62,2.74,2.2H10.51V56.22z M49.55,54.73c-1.54,0.97-3.34,1.49-5.19,1.49
		c-2.88,0-5.6-1.25-7.47-3.44c-1.54-1.79-2.39-4.07-2.39-6.42c0-5.44,4.42-9.87,9.86-9.87c0.59,0,1.17,0.05,1.77,0.16
		c1.23,0.22,2.38,0.67,3.43,1.33c2.92,1.82,4.67,4.95,4.67,8.38C54.22,49.79,52.48,52.92,49.55,54.73z"/>
	<polygon class="st0" points="43.5,49.19 39.76,45.97 38.78,47.11 43.75,51.38 50.05,42.86 48.85,41.97 	"/>
	<rect x="16.36" y="38.16" class="st0" width="14.31" height="1.5"/>
	<rect x="16.36" y="42.85" class="st0" width="14.31" height="1.5"/>
	<rect x="16.36" y="47.54" class="st0" width="14.31" height="1.5"/>
	<path class="st0" d="M18.6,32.15h1.32c0.35,1.54,1.73,2.7,3.38,2.7c1.64,0,3.02-1.16,3.38-2.7h6.7c0.35,1.54,1.73,2.7,3.37,2.7
		s3.02-1.16,3.38-2.7h0.98c1.24,0,2.24-1,2.24-2.24V26.4c0-1.24-1-2.24-2.24-2.24h-1.99l-3.79-5.84H25.27l-4.52,5.84H18.6
		c-1.24,0-2.24,1-2.24,2.24v3.51C16.36,31.14,17.36,32.15,18.6,32.15z M23.3,33.35c-1.1,0-1.96-0.86-1.97-1.96
		c0-1.09,0.88-1.97,1.97-1.97c0.14,0,0.27,0.01,0.4,0.04c0.9,0.18,1.57,0.98,1.57,1.94C25.26,32.47,24.38,33.35,23.3,33.35z
		 M36.75,33.35c-1.09,0-1.95-0.86-1.96-1.96c0-1.09,0.88-1.97,1.96-1.97c0.14,0,0.27,0.01,0.4,0.04c0.9,0.18,1.57,0.98,1.57,1.94
		C38.71,32.47,37.83,33.35,36.75,33.35z M37.33,24.15h-6.58v-4.34h3.77L37.33,24.15z M26.01,19.82h3.24v4.34h-6.6L26.01,19.82z
		 M17.86,26.4c0-0.41,0.33-0.74,0.74-0.74h22.51c0.41,0,0.74,0.33,0.74,0.74v3.51c0,0.41-0.33,0.74-0.74,0.74h-0.97
		c-0.04-0.2-0.11-0.4-0.19-0.59c-0.02-0.05-0.05-0.09-0.07-0.14c-0.07-0.14-0.14-0.28-0.22-0.41c-0.04-0.06-0.09-0.12-0.14-0.18
		c-0.08-0.11-0.16-0.21-0.25-0.31c-0.06-0.06-0.12-0.12-0.18-0.17c-0.09-0.09-0.19-0.17-0.29-0.24c-0.07-0.05-0.14-0.1-0.21-0.14
		c-0.11-0.07-0.22-0.13-0.34-0.19c-0.07-0.04-0.14-0.07-0.22-0.1c-0.13-0.05-0.27-0.09-0.41-0.13c-0.07-0.02-0.13-0.04-0.2-0.05
		c-0.21-0.04-0.43-0.07-0.66-0.07c-0.22,0-0.44,0.03-0.65,0.07c-0.07,0.01-0.13,0.04-0.2,0.05c-0.14,0.04-0.28,0.08-0.41,0.13
		c-0.08,0.03-0.15,0.07-0.22,0.1c-0.12,0.06-0.23,0.12-0.34,0.19c-0.07,0.04-0.14,0.09-0.2,0.14c-0.1,0.08-0.2,0.16-0.3,0.25
		c-0.06,0.05-0.12,0.11-0.17,0.17c-0.09,0.1-0.18,0.21-0.26,0.32c-0.04,0.06-0.09,0.11-0.13,0.17c-0.09,0.14-0.17,0.29-0.24,0.45
		c-0.02,0.04-0.04,0.07-0.05,0.11c-0.08,0.19-0.14,0.38-0.19,0.59h-6.68c-0.04-0.2-0.11-0.4-0.19-0.59
		c-0.02-0.05-0.05-0.09-0.07-0.13c-0.07-0.15-0.14-0.29-0.23-0.42c-0.04-0.06-0.09-0.12-0.13-0.18c-0.08-0.11-0.17-0.21-0.26-0.31
		c-0.06-0.06-0.11-0.11-0.17-0.17c-0.1-0.09-0.19-0.17-0.3-0.25c-0.07-0.05-0.13-0.1-0.2-0.14c-0.11-0.07-0.23-0.13-0.34-0.19
		c-0.07-0.04-0.14-0.07-0.22-0.1c-0.13-0.05-0.27-0.09-0.41-0.13c-0.07-0.02-0.13-0.04-0.2-0.05c-0.21-0.04-0.43-0.07-0.66-0.07
		s-0.44,0.03-0.66,0.07c-0.07,0.01-0.14,0.04-0.2,0.05c-0.14,0.04-0.28,0.08-0.41,0.13c-0.08,0.03-0.15,0.07-0.22,0.1
		c-0.12,0.06-0.23,0.12-0.34,0.19c-0.07,0.04-0.14,0.09-0.21,0.14c-0.1,0.08-0.2,0.16-0.3,0.25c-0.06,0.06-0.12,0.11-0.18,0.17
		c-0.09,0.1-0.18,0.21-0.26,0.32c-0.04,0.06-0.09,0.11-0.13,0.18c-0.09,0.14-0.17,0.29-0.24,0.45c-0.02,0.04-0.04,0.07-0.06,0.11
		c-0.08,0.19-0.14,0.38-0.19,0.59H18.6c-0.41,0-0.74-0.33-0.74-0.74V26.4z"/>
</g>
</svg>
