<?xml version="1.0" encoding="utf-8"?>
<!-- Generator: Adobe Illustrator 24.3.0, SVG Export Plug-In . SVG Version: 6.00 Build 0)  -->
<svg version="1.1" id="Layer_1" xmlns="http://www.w3.org/2000/svg" xmlns:xlink="http://www.w3.org/1999/xlink" x="0px" y="0px"
	 viewBox="0 0 64 64" style="enable-background:new 0 0 64 64;" xml:space="preserve">
<style type="text/css">
	.st0{fill:#FFFFFF;}
</style>
<g>
	<path class="st0" d="M43.89,35.31c-0.8,0-1.59,0.12-2.35,0.36l-3.88-3.88l0,0l-0.96-0.96l8.65-8.65h2.58l3.22-6.33l0.24-0.49
		l-2.94-2.94l-6.82,3.47v2.53l-8.67,8.67l-4.8-4.8c0.13-0.58,0.2-1.17,0.2-1.76c0-4.38-3.57-7.95-7.95-7.95
		c-1.21,0-2.36,0.26-3.4,0.78l-0.94,0.46l3.94,3.94c0.62,0.62,0.62,1.62,0,2.24c-0.61,0.61-1.65,0.61-2.25,0l-3.97-3.97l-0.47,0.91
		c-0.57,1.11-0.86,2.32-0.86,3.58c0,4.38,3.57,7.95,7.95,7.95c0.8,0,1.59-0.12,2.35-0.36l2.77,2.77L13.68,42.74
		c-2.02,2.02-2.02,5.31,0,7.33c1.01,1.01,2.34,1.52,3.67,1.52s2.66-0.51,3.67-1.52l2.44-2.44l-1.06-1.06l-2.44,2.44
		c-1.44,1.44-3.77,1.44-5.21,0c-0.7-0.7-1.08-1.62-1.08-2.61c0-0.98,0.38-1.91,1.08-2.61l8.76-8.76l5.21,5.21l-3.01,3.01l1.06,1.06
		l6.1-6.1l3.27,3.27c-0.13,0.58-0.2,1.17-0.2,1.76c0,4.38,3.57,7.95,7.95,7.95c1.21,0,2.36-0.26,3.4-0.78l0.94-0.46l-3.94-3.94
		c-0.62-0.62-0.62-1.62,0-2.24c0.61-0.6,1.65-0.61,2.25,0l3.97,3.97l0.47-0.91c0.57-1.11,0.86-2.32,0.86-3.58
		C51.84,38.88,48.27,35.31,43.89,35.31z M31.09,34.32l-1.62-1.62l12.9-12.9l1.62,1.62L31.09,34.32z M43.13,16.8l5.03-2.56l1.41,1.41
		L47,20.67h-1.63l-2.25-2.25V16.8H43.13z M23.15,26.38l-0.45,0.17c-0.74,0.28-1.5,0.42-2.28,0.42c-3.56,0-6.45-2.89-6.45-6.45
		c0-0.66,0.1-1.3,0.29-1.92l2.44,2.44c1.15,1.17,3.2,1.18,4.38,0.01c1.2-1.2,1.2-3.16,0-4.36l-2.39-2.39
		c0.55-0.16,1.13-0.23,1.73-0.23c3.56,0,6.45,2.89,6.45,6.45c0,0.6-0.08,1.2-0.25,1.78l-0.12,0.42l5.41,5.41l-1.38,1.38l-3.02-3.02
		l-1.06,1.06l3.02,3.02l-1.05,1.05l-1.81-1.81l0,0L23.15,26.38z M29.77,39.19l-5.21-5.21l2.03-2.03l5.21,5.21L29.77,39.19z
		 M50.04,45.18l-2.44-2.44c-1.15-1.18-3.2-1.18-4.38-0.01c-1.2,1.2-1.2,3.16,0,4.36l2.39,2.39c-0.55,0.16-1.13,0.23-1.73,0.23
		c-3.56,0-6.45-2.89-6.45-6.45c0-0.6,0.08-1.2,0.25-1.78l0.12-0.42l-3.89-3.89l0,0l-1.78-1.78l1.05-1.05l3.53,3.53l1.06-1.06
		l-3.53-3.53l1.38-1.38l5.51,5.51l0.45-0.17c0.74-0.28,1.5-0.42,2.28-0.42c3.56,0,6.45,2.89,6.45,6.45
		C50.34,43.92,50.24,44.56,50.04,45.18z"/>
	
		<rect x="23.74" y="44.7" transform="matrix(0.7071 -0.7071 0.7071 0.7071 -24.9399 30.6891)" class="st0" width="1.67" height="1.5"/>
</g>
</svg>
