<?xml version="1.0" encoding="utf-8"?>
<!-- Generator: Adobe Illustrator 24.3.0, SVG Export Plug-In . SVG Version: 6.00 Build 0)  -->
<svg version="1.1" id="Layer_1" xmlns="http://www.w3.org/2000/svg" xmlns:xlink="http://www.w3.org/1999/xlink" x="0px" y="0px"
	 viewBox="0 0 64 64" style="enable-background:new 0 0 64 64;" xml:space="preserve">
<style type="text/css">
	.st0{fill:#FFFFFF;}
</style>
<g>
	<g>
		<path class="st0" d="M40.03,42.68H16.57L5.07,29.59l4.02-11.42l11.78,5.29h14.08l2.2,2.2c1.92-0.99,8.93-4.57,13.23-6.22
			c4.4-1.69,7.37,1.48,8.33,3.4l0.23,0.46l-3.04,3.3l-0.54-0.7c-0.68-0.87-1.33-1.33-1.77-1.27c-0.48,0.07-0.85,0.73-0.92,0.91
			l-0.09,0.16L40.03,42.68z M17.25,41.18h22.02l12.04-16.3c0.17-0.37,0.82-1.56,2.07-1.73c0.84-0.12,1.71,0.28,2.58,1.17l1.14-1.25
			c-0.69-1.06-2.75-3.56-6.19-2.23c-4.83,1.86-13.48,6.36-13.57,6.41l-0.49,0.25l-2.54-2.54H20.54L9.96,20.21l-3.18,9.05
			L17.25,41.18z"/>
	</g>
	<g>
		<path class="st0" d="M19.18,39.36L8.95,28.69l1.88-5.56l8.34,3.51v12.72H19.18z M10.72,28.37l6.96,7.23v-7.96l-6.05-2.55
			L10.72,28.37z"/>
	</g>
	<g>
		<path class="st0" d="M31.06,20.7h-5.87c-1.42,0-2.58-1.16-2.58-2.58s1.16-2.58,2.58-2.58h5.87c1.42,0,2.58,1.16,2.58,2.58
			S32.48,20.7,31.06,20.7z M25.19,17.03c-0.6,0-1.08,0.49-1.08,1.08c0,0.6,0.49,1.08,1.08,1.08h5.87c0.6,0,1.08-0.49,1.08-1.08
			c0-0.6-0.49-1.08-1.08-1.08H25.19z"/>
	</g>
	<g>
		<rect x="25.45" y="19.95" class="st0" width="1.5" height="4.29"/>
	</g>
	<g>
		<rect x="29.3" y="19.95" class="st0" width="1.5" height="4.29"/>
	</g>
	<g>
		<path class="st0" d="M52.31,48.47c-3.46,0-6.28-2.82-6.28-6.28c0-3.26,5.15-8.75,5.73-9.36l0.54-0.57l0.54,0.57
			c0.59,0.61,5.73,6.1,5.73,9.36C58.59,45.65,55.77,48.47,52.31,48.47z M52.31,34.45c-1.71,1.9-4.78,5.72-4.78,7.74
			c0,2.63,2.14,4.78,4.78,4.78s4.78-2.14,4.78-4.78C57.09,40.17,54.02,36.35,52.31,34.45z"/>
	</g>
	<g>
		<path class="st0" d="M52.13,45.88l-0.33-1.46c1.22-0.28,2.07-1.34,2.07-2.59c0-0.64-0.23-1.26-0.65-1.74l1.13-0.98
			c0.66,0.76,1.02,1.72,1.02,2.73C55.37,43.78,54.04,45.45,52.13,45.88z"/>
	</g>
	<g>
		<rect x="23.73" y="27.28" class="st0" width="4.74" height="1.5"/>
	</g>
	<g>
		<rect x="31.06" y="27.28" class="st0" width="2.53" height="1.5"/>
	</g>
</g>
</svg>
