<?xml version="1.0" encoding="utf-8"?>
<!-- Generator: Adobe Illustrator 24.3.0, SVG Export Plug-In . SVG Version: 6.00 Build 0)  -->
<svg version="1.1" id="Layer_1" xmlns="http://www.w3.org/2000/svg" xmlns:xlink="http://www.w3.org/1999/xlink" x="0px" y="0px"
	 viewBox="0 0 64 64" style="enable-background:new 0 0 64 64;" xml:space="preserve">
<style type="text/css">
	.st0{fill:#FFFFFF;}
</style>
<g>
	<path class="st0" d="M30.47,33.57c0,1.72,1.4,3.12,3.12,3.12s3.12-1.4,3.12-3.12s-1.4-3.12-3.12-3.12S30.47,31.85,30.47,33.57z
		 M33.58,31.95c0.89,0,1.62,0.73,1.62,1.62s-0.73,1.62-1.62,1.62s-1.62-0.73-1.62-1.62S32.69,31.95,33.58,31.95z"/>
	<path class="st0" d="M32.75,44.32c0.28,0.02,0.55,0.04,0.83,0.04c0.28,0,0.56-0.02,0.84-0.04v-1.5c-0.28,0.02-0.55,0.04-0.84,0.04
		c-0.28,0-0.56-0.02-0.83-0.04V44.32z"/>
	<path class="st0" d="M33.58,22.78c-5.95,0-10.79,4.84-10.79,10.79c0,5.15,3.63,9.46,8.46,10.53v-1.55c-4-1.04-6.96-4.67-6.96-8.98
		c0-5.12,4.17-9.29,9.29-9.29s9.29,4.17,9.29,9.29c0,4.32-2.96,7.94-6.96,8.98v1.55c4.83-1.07,8.46-5.38,8.46-10.53
		C44.38,27.62,39.54,22.78,33.58,22.78z"/>
	<path class="st0" d="M33.58,12.36c-1.54,0-3.09,0.18-4.61,0.51l-1.62-3.65l-8.34,2.04l-0.23,0.1c-2.94,1.94-5.53,4.54-7.49,7.52
		l-0.06,0.24l-0.04-0.01l0.04,0.01l-1.9,7.58L9.2,27.31L12.87,29c-0.32,1.49-0.5,3.02-0.5,4.57c0,11.7,9.51,21.22,21.21,21.22
		S54.8,45.27,54.8,33.57C54.8,21.87,45.28,12.36,33.58,12.36z M17.72,27.81c0.19-0.54,0.42-1.06,0.67-1.57
		c0.04-0.07,0.07-0.15,0.11-0.22c0.24-0.49,0.51-0.96,0.8-1.42c0.05-0.08,0.1-0.16,0.16-0.24c0.3-0.45,0.61-0.9,0.95-1.32
		c0.05-0.06,0.1-0.12,0.15-0.17c0.72-0.88,1.53-1.68,2.42-2.4c0.06-0.05,0.12-0.1,0.17-0.14c0.43-0.34,0.87-0.65,1.32-0.94
		c0.08-0.05,0.16-0.11,0.25-0.16c0.46-0.29,0.93-0.55,1.42-0.79c0.08-0.04,0.16-0.07,0.23-0.11c0.51-0.24,1.03-0.47,1.56-0.66
		c0.01,0,0.01,0,0.02-0.01v1.83c-3.81,1.53-6.83,4.52-8.39,8.33h-1.84C17.72,27.82,17.72,27.82,17.72,27.81z M10.93,26.45l1.68-6.86
		c1.82-2.73,4.2-5.12,6.89-6.92l6.99-1.71l1.46,3.29v1.83c-0.11,0.03-0.21,0.08-0.32,0.11c-0.15,0.05-0.3,0.1-0.45,0.16
		c-0.2,0.08-0.41,0.16-0.61,0.24c-0.15,0.06-0.29,0.12-0.44,0.19c-0.2,0.09-0.4,0.18-0.59,0.28c-0.14,0.07-0.28,0.14-0.42,0.21
		c-0.2,0.1-0.39,0.21-0.58,0.32c-0.13,0.08-0.27,0.15-0.4,0.23c-0.19,0.12-0.38,0.24-0.57,0.36c-0.12,0.08-0.25,0.16-0.37,0.24
		c-0.19,0.13-0.38,0.27-0.57,0.42c-0.11,0.08-0.22,0.16-0.33,0.24c-0.21,0.16-0.41,0.33-0.61,0.5c-0.08,0.07-0.17,0.14-0.25,0.21
		c-0.56,0.49-1.09,1.02-1.58,1.57c-0.08,0.09-0.15,0.18-0.22,0.26c-0.17,0.19-0.33,0.39-0.49,0.59c-0.09,0.11-0.17,0.23-0.26,0.34
		c-0.14,0.18-0.27,0.36-0.4,0.55c-0.09,0.13-0.17,0.26-0.26,0.39c-0.12,0.18-0.24,0.36-0.35,0.54c-0.09,0.14-0.17,0.28-0.25,0.42
		c-0.1,0.18-0.21,0.36-0.31,0.55c-0.08,0.15-0.15,0.3-0.23,0.45C17,25.63,16.91,25.82,16.82,26c-0.07,0.16-0.14,0.31-0.2,0.47
		c-0.08,0.19-0.15,0.37-0.23,0.56c-0.06,0.16-0.12,0.33-0.18,0.49c-0.03,0.1-0.07,0.19-0.11,0.29h-2.21l-0.7-0.33v0.01L10.93,26.45z
		 M33.58,53.29c-10.87,0-19.71-8.85-19.71-19.72c0-1.44,0.15-2.86,0.45-4.24h1.36h1.56h3.35l0.18-0.49c1.4-3.79,4.38-6.75,8.18-8.12
		l0.5-0.18V17.2v-1.56v-1.35c1.36-0.29,2.75-0.43,4.13-0.43c10.87,0,19.72,8.84,19.72,19.71C53.3,44.44,44.46,53.29,33.58,53.29z"/>
	<rect x="44.65" y="25.3" class="st0" width="4.8" height="1.5"/>
	<polygon class="st0" points="34.41,27.92 34.46,27.92 34.46,26.07 32.7,26.07 32.7,26.08 32.65,26.08 32.65,27.92 	"/>
	<rect x="22.15" y="14.43" class="st0" width="1.77" height="1.85"/>
	<rect x="14.31" y="22.51" class="st0" width="1.77" height="1.85"/>
	<rect x="35.72" y="27.15" class="st0" width="1.77" height="1.85"/>
	<rect x="38.18" y="29.56" class="st0" width="1.77" height="1.85"/>
	<rect x="39.25" y="32.7" class="st0" width="1.85" height="1.77"/>
	<rect x="29.68" y="27.15" class="st0" width="1.77" height="1.85"/>
	<rect x="27.22" y="29.56" class="st0" width="1.77" height="1.85"/>
	<rect x="26.07" y="32.7" class="st0" width="1.85" height="1.77"/>
	<rect x="29.68" y="38.15" class="st0" width="1.77" height="1.85"/>
	<rect x="27.22" y="35.73" class="st0" width="1.77" height="1.85"/>
	<rect x="32.71" y="39.22" class="st0" width="1.77" height="1.85"/>
	<rect x="35.72" y="38.15" class="st0" width="1.77" height="1.85"/>
	<rect x="38.18" y="35.73" class="st0" width="1.77" height="1.85"/>
	<rect x="17.67" y="40.33" class="st0" width="4.8" height="1.5"/>
	
		<rect x="38.78" y="19.39" transform="matrix(0.8544 -0.5197 0.5197 0.8544 -4.4681 24.3354)" class="st0" width="4.8" height="1.5"/>
	
		<rect x="23.54" y="46.25" transform="matrix(0.8544 -0.5197 0.5197 0.8544 -20.6471 20.3262)" class="st0" width="4.8" height="1.5"/>
	<rect x="31.4" y="17.38" transform="matrix(0.5001 -0.866 0.866 0.5001 1.1931 38.3312)" class="st0" width="4.8" height="1.5"/>
	
		<rect x="30.93" y="48.26" transform="matrix(0.5001 -0.866 0.866 0.5001 -25.7813 53.3642)" class="st0" width="4.8" height="1.5"/>
	
		<rect x="38.59" y="46.36" transform="matrix(6.510141e-03 -1 1 6.510141e-03 -6.3818 87.7979)" class="st0" width="4.8" height="1.5"/>
	
		<rect x="46.2" y="38.87" transform="matrix(0.8573 -0.5148 0.5148 0.8573 -14.5471 30.0599)" class="st0" width="1.5" height="4.8"/>
	<rect x="17.37" y="30.99" transform="matrix(0.4966 -0.868 0.868 0.4966 -19.8597 32.533)" class="st0" width="1.5" height="4.8"/>
	<rect x="48.25" y="31.35" transform="matrix(0.496 -0.8683 0.8683 0.496 -4.611 59.5632)" class="st0" width="1.5" height="4.8"/>
</g>
</svg>
