<?xml version="1.0" encoding="utf-8"?>
<!-- Generator: Adobe Illustrator 24.3.0, SVG Export Plug-In . SVG Version: 6.00 Build 0)  -->
<svg version="1.1" id="Layer_1" xmlns="http://www.w3.org/2000/svg" xmlns:xlink="http://www.w3.org/1999/xlink" x="0px" y="0px"
	 viewBox="0 0 64 64" style="enable-background:new 0 0 64 64;" xml:space="preserve">
<style type="text/css">
	.st0{fill:#FFFFFF;}
</style>
<g>
	<g>
		<path class="st0" d="M51.89,56.72H12.11c-2.47,0-4.48-2.01-4.48-4.48V32.53c0-2.47,2.01-4.48,4.48-4.48H51.9
			c2.47,0,4.48,2.01,4.48,4.48v19.71C56.37,54.71,54.36,56.72,51.89,56.72z M12.11,29.56c-1.64,0-2.98,1.33-2.98,2.98v19.71
			c0,1.64,1.33,2.98,2.98,2.98H51.9c1.64,0,2.98-1.33,2.98-2.98V32.53c0-1.64-1.33-2.98-2.98-2.98H12.11V29.56z"/>
	</g>
	<g>
		<path class="st0" d="M36.11,46.74H27.9c-2.05,0-3.72-1.67-3.72-3.72v-1.26c0-2.05,1.67-3.72,3.72-3.72h8.21
			c2.05,0,3.72,1.67,3.72,3.72v1.26C39.82,45.07,38.16,46.74,36.11,46.74z M27.89,39.54c-1.22,0-2.22,1-2.22,2.22v1.26
			c0,1.22,1,2.22,2.22,2.22h8.21c1.22,0,2.22-1,2.22-2.22v-1.26c0-1.22-1-2.22-2.22-2.22H27.89z"/>
	</g>
	<g>
		<g>
			<path class="st0" d="M22.57,36.38H8.58c-0.41,0-0.75-0.34-0.75-0.75s0.34-0.75,0.75-0.75h13.99c0.41,0,0.75,0.34,0.75,0.75
				S22.99,36.38,22.57,36.38z"/>
		</g>
		<g>
			<path class="st0" d="M19.2,43.2H8.58c-0.41,0-0.75-0.34-0.75-0.75s0.34-0.75,0.75-0.75H19.2c0.41,0,0.75,0.34,0.75,0.75
				S19.61,43.2,19.2,43.2z"/>
		</g>
		<g>
			<path class="st0" d="M22.57,50.02H8.58c-0.41,0-0.75-0.34-0.75-0.75s0.34-0.75,0.75-0.75h13.99c0.41,0,0.75,0.34,0.75,0.75
				S22.99,50.02,22.57,50.02z"/>
		</g>
		<g>
			<path class="st0" d="M55.42,50.02H41.43c-0.41,0-0.75-0.34-0.75-0.75s0.34-0.75,0.75-0.75h13.99c0.41,0,0.75,0.34,0.75,0.75
				S55.83,50.02,55.42,50.02z"/>
		</g>
		<g>
			<path class="st0" d="M55.42,43.2H44.8c-0.41,0-0.75-0.34-0.75-0.75s0.34-0.75,0.75-0.75h10.61c0.41,0,0.75,0.34,0.75,0.75
				S55.83,43.2,55.42,43.2z"/>
		</g>
		<g>
			<path class="st0" d="M55.42,36.38H41.43c-0.41,0-0.75-0.34-0.75-0.75s0.34-0.75,0.75-0.75h13.99c0.41,0,0.75,0.34,0.75,0.75
				S55.83,36.38,55.42,36.38z"/>
		</g>
	</g>
	<g>
		<path class="st0" d="M31.62,35.05c-0.41,0-0.75-0.34-0.75-0.75v-5.49c0-0.41,0.34-0.75,0.75-0.75c0.41,0,0.75,0.34,0.75,0.75v5.49
			C32.37,34.72,32.04,35.05,31.62,35.05z"/>
	</g>
	<g>
		<path class="st0" d="M32,56.65c-0.41,0-0.75-0.34-0.75-0.75v-5.49c0-0.41,0.34-0.75,0.75-0.75s0.75,0.34,0.75,0.75v5.49
			C32.75,56.32,32.41,56.65,32,56.65z"/>
	</g>
	<g>
		<g>
			<path class="st0" d="M22.15,14.27c-0.19,0-0.38-0.07-0.53-0.22L16.97,9.4l-4.65,4.65c-0.29,0.29-0.77,0.29-1.06,0
				s-0.29-0.77,0-1.06l5.71-5.71l5.71,5.71c0.29,0.29,0.29,0.77,0,1.06C22.53,14.2,22.34,14.27,22.15,14.27z"/>
		</g>
		<g>
			<path class="st0" d="M16.96,22.99c-0.41,0-0.75-0.34-0.75-0.75V9.34c0-0.41,0.34-0.75,0.75-0.75s0.75,0.34,0.75,0.75v12.9
				C17.71,22.65,17.38,22.99,16.96,22.99z"/>
		</g>
	</g>
	<g>
		<g>
			<path class="st0" d="M26.44,14.27c-0.19,0-0.38-0.07-0.53-0.22c-0.29-0.29-0.29-0.77,0-1.06l5.71-5.71l5.71,5.71
				c0.29,0.29,0.29,0.77,0,1.06s-0.77,0.29-1.06,0L31.62,9.4l-4.65,4.65C26.83,14.2,26.63,14.27,26.44,14.27z"/>
		</g>
		<g>
			<path class="st0" d="M31.62,22.99c-0.41,0-0.75-0.34-0.75-0.75V9.34c0-0.41,0.34-0.75,0.75-0.75c0.41,0,0.75,0.34,0.75,0.75v12.9
				C32.37,22.65,32.03,22.99,31.62,22.99z"/>
		</g>
	</g>
	<g>
		<g>
			<path class="st0" d="M51.45,14.27c-0.19,0-0.38-0.07-0.53-0.22L46.27,9.4l-4.65,4.65c-0.29,0.29-0.77,0.29-1.06,0
				s-0.29-0.77,0-1.06l5.71-5.71l5.71,5.71c0.29,0.29,0.29,0.77,0,1.06C51.84,14.2,51.64,14.27,51.45,14.27z"/>
		</g>
		<g>
			<path class="st0" d="M46.27,22.99c-0.41,0-0.75-0.34-0.75-0.75V9.34c0-0.41,0.34-0.75,0.75-0.75s0.75,0.34,0.75,0.75v12.9
				C47.02,22.65,46.68,22.99,46.27,22.99z"/>
		</g>
	</g>
</g>
</svg>
