<?xml version="1.0" encoding="utf-8"?>
<!-- Generator: Adobe Illustrator 24.3.0, SVG Export Plug-In . SVG Version: 6.00 Build 0)  -->
<svg version="1.1" id="Layer_1" xmlns="http://www.w3.org/2000/svg" xmlns:xlink="http://www.w3.org/1999/xlink" x="0px" y="0px"
	 viewBox="0 0 64 64" style="enable-background:new 0 0 64 64;" xml:space="preserve">
<style type="text/css">
	.st0{fill:#FFFFFF;}
</style>
<g>
	<path class="st0" d="M53.81,27.07h-2.6c-0.46-1.83-1.18-3.58-2.14-5.2l1.82-1.82c0.38-0.37,0.59-0.88,0.59-1.41
		c0-0.54-0.21-1.04-0.59-1.4l-4.16-4.17c-0.78-0.77-2.04-0.76-2.81,0.01l-1.81,1.82c-1.61-0.97-3.36-1.7-5.21-2.17v-2.55
		c0-1.1-0.89-1.99-1.98-1.99h-5.88c-1.1,0-1.99,0.89-1.99,1.99v2.56c-1.84,0.46-3.59,1.19-5.21,2.16l-1.81-1.82
		c-0.77-0.77-2.02-0.77-2.81,0l-4.14,4.15c-0.38,0.37-0.59,0.88-0.59,1.41c0,0.54,0.21,1.04,0.59,1.41l1.82,1.82
		c-0.97,1.64-1.69,3.38-2.14,5.2h-2.59c-1.1,0-1.99,0.89-1.99,1.98v5.88c0,1.1,0.89,1.99,1.99,1.99h2.63
		c0.46,1.82,1.18,3.55,2.15,5.15l-1.86,1.86c-0.38,0.37-0.59,0.87-0.59,1.4c0,0.53,0.21,1.04,0.59,1.42l4.15,4.15
		c0.38,0.38,0.88,0.59,1.41,0.59h0.01c0.53,0,1.03-0.21,1.39-0.59l1.89-1.89c1.61,0.96,3.33,1.67,5.13,2.12v2.69
		c0,1.1,0.89,1.99,1.99,1.99h5.88c1.09,0,1.98-0.89,1.98-1.99v-2.68c1.8-0.46,3.53-1.17,5.14-2.12l1.88,1.88
		c0.37,0.38,0.87,0.59,1.4,0.59h0.01c0.53,0,1.03-0.21,1.41-0.59l4.15-4.15c0.38-0.38,0.59-0.89,0.59-1.42s-0.21-1.03-0.59-1.39
		l-1.87-1.87c0.96-1.61,1.68-3.33,2.15-5.15h2.63c1.1,0,1.99-0.89,1.99-1.99v-5.88C55.8,27.96,54.91,27.07,53.81,27.07z M54.3,34.94
		c0,0.27-0.22,0.49-0.49,0.49H50l-0.13,0.58c-0.46,2.06-1.27,4-2.41,5.77l-0.33,0.51l2.72,2.72c0.09,0.09,0.14,0.21,0.14,0.33
		c0,0.13-0.05,0.25-0.15,0.35l-4.15,4.15c-0.1,0.1-0.22,0.15-0.35,0.15l0,0c-0.13,0-0.24-0.05-0.34-0.15l-2.72-2.72l-0.51,0.32
		c-1.78,1.12-3.72,1.92-5.76,2.37l-0.59,0.13v3.87c0,0.27-0.21,0.49-0.48,0.49h-5.88c-0.27,0-0.49-0.22-0.49-0.49v-3.88l-0.59-0.13
		c-2.03-0.44-3.97-1.24-5.75-2.37l-0.51-0.32l-2.74,2.74c-0.09,0.09-0.21,0.14-0.33,0.14c-0.14,0.02-0.25-0.05-0.35-0.15l-4.15-4.15
		c-0.1-0.1-0.15-0.22-0.15-0.35c0-0.12,0.05-0.24,0.15-0.34l2.72-2.72l-0.33-0.51C15.4,40,14.59,38.06,14.13,36L14,35.41h-3.82
		c-0.27,0-0.49-0.22-0.49-0.49v-5.88c0-0.26,0.22-0.48,0.49-0.48h3.8l0.13-0.59c0.44-2.05,1.24-4.01,2.39-5.82l0.32-0.51l-2.67-2.67
		c-0.09-0.09-0.14-0.21-0.14-0.34c0-0.13,0.05-0.25,0.15-0.34l4.14-4.15c0.19-0.19,0.5-0.19,0.69-0.01l2.66,2.67l0.51-0.33
		c1.78-1.15,3.74-1.96,5.83-2.42l0.59-0.13v-3.75c0-0.27,0.21-0.49,0.49-0.49h5.88c0.27,0,0.48,0.22,0.48,0.49v3.74l0.59,0.13
		c2.1,0.47,4.06,1.29,5.83,2.43l0.51,0.33L45,14.15c0.19-0.19,0.5-0.19,0.69,0l4.16,4.17c0.09,0.09,0.14,0.21,0.14,0.34
		c0,0.13-0.05,0.25-0.15,0.35l-2.67,2.67l0.32,0.51c1.13,1.78,1.94,3.74,2.39,5.82l0.13,0.59h3.79c0.27,0,0.49,0.21,0.49,0.48
		L54.3,34.94L54.3,34.94z"/>
	<path class="st0" d="M32,45.08c-7.25,0-13.15-5.9-13.15-13.15S24.75,18.79,32,18.79c6.47,0,11.85,4.7,12.93,10.87h1.52
		c-1.1-7-7.15-12.37-14.45-12.37c-8.08,0-14.65,6.57-14.65,14.64c0,8.08,6.57,14.65,14.65,14.65c7.25,0,13.28-5.31,14.43-12.25
		h-1.52C43.78,40.44,38.43,45.08,32,45.08z"/>
	<path class="st0" d="M45.14,31.94c0,0.3-0.03,0.6-0.05,0.9h1.5c0.02-0.3,0.05-0.6,0.05-0.9c0-0.26-0.03-0.51-0.04-0.77h-1.5
		C45.12,31.42,45.14,31.67,45.14,31.94z"/>
	<path class="st0" d="M37.54,22.52h-7.59l-5.42,10.85H29l-1.9,9.48l12.4-14.4H34L37.54,22.52z M36.22,29.95l-6.54,7.59l1.14-5.68
		h-3.87l3.92-7.85h4.03l-3.54,5.94H36.22z"/>
</g>
</svg>
