<?xml version="1.0" encoding="utf-8"?>
<!-- Generator: Adobe Illustrator 24.3.0, SVG Export Plug-In . SVG Version: 6.00 Build 0)  -->
<svg version="1.1" id="Layer_1" xmlns="http://www.w3.org/2000/svg" xmlns:xlink="http://www.w3.org/1999/xlink" x="0px" y="0px"
	 viewBox="0 0 64 64" style="enable-background:new 0 0 64 64;" xml:space="preserve">
<style type="text/css">
	.st0{fill:#FFFFFF;}
</style>
<g>
	<g>
		<path class="st0" d="M42.63,18.56H22.22V12.9h20.41C42.63,12.9,42.63,18.56,42.63,18.56z M23.9,16.88h17.04v-2.29H23.9V16.88z"/>
	</g>
	<g>
		<path class="st0" d="M52.18,51.09H23.46l-4.97-4.97h-4.61V27.27h5.26l4.4-5.52h17.7l4.19,5.31h6.75
			C52.18,27.06,52.18,51.09,52.18,51.09z M24.15,49.41h26.34V28.75h-5.88l-4.19-5.31H24.35l-4.4,5.52h-4.39v15.48h3.62L24.15,49.41z
			"/>
	</g>
	<g>
		<path class="st0" d="M58.45,49.89h-4.41V28.83h4.41l2.38,2.65v15.76L58.45,49.89z M55.72,48.2h1.98l1.45-1.61V32.13l-1.45-1.61
			h-1.98V48.2z"/>
	</g>
	<g>
		<rect x="51.21" y="34.42" class="st0" width="3.51" height="1.69"/>
	</g>
	<g>
		<rect x="51.21" y="40.01" class="st0" width="3.56" height="1.69"/>
	</g>
	<g>
		<rect x="10.3" y="33.3" class="st0" width="4.18" height="1.69"/>
	</g>
	<g>
		<rect x="17.37" y="35.17" class="st0" width="1.69" height="7.34"/>
	</g>
	<g>
		<rect x="17.37" y="30.85" class="st0" width="1.69" height="1.94"/>
	</g>
	<g>
		<rect x="10.22" y="37.9" class="st0" width="4.27" height="1.69"/>
	</g>
	<g>
		<path class="st0" d="M27.09,47.92l2.2-10.03h-6.42l13.91-13.54l-1.5,10.15h6.28L27.09,47.92z M27.01,36.21h4.37l-1.49,6.82
			l7.38-6.84h-3.94l1.06-7.16L27.01,36.21z"/>
	</g>
	<g>
		<path class="st0" d="M10.88,46.13H5.94v-9.72l-2.77-2.37v-3.93l3.26-3.26h4.45V46.13z M7.62,44.44H9.2V28.53H7.13L4.86,30.8v2.46
			l2.77,2.37v8.81H7.62z"/>
	</g>
	<g>
		<rect x="46.59" y="27.83" class="st0" width="1.69" height="22.42"/>
	</g>
	<g>
		<rect x="33.32" y="17.9" class="st0" width="1.69" height="4.82"/>
	</g>
	<g>
		<rect x="29.85" y="17.9" class="st0" width="1.69" height="4.82"/>
	</g>
</g>
</svg>
