<?xml version="1.0" encoding="utf-8"?>
<!-- Generator: Adobe Illustrator 24.3.0, SVG Export Plug-In . SVG Version: 6.00 Build 0)  -->
<svg version="1.1" id="Layer_1" xmlns="http://www.w3.org/2000/svg" xmlns:xlink="http://www.w3.org/1999/xlink" x="0px" y="0px"
	 viewBox="0 0 366 47" style="enable-background:new 0 0 366 47;" xml:space="preserve">
<style type="text/css">
	.st0{fill:#BE2026;}
	.st1{enable-background:new    ;}
	.st2{fill:#FFFFFF;}
</style>
<rect x="-0.03" y="-0.02" class="st0" width="366.03" height="47.03"/>
<g>
	<g class="st1">
		<path class="st2" d="M52.94,20.61l-1.03,3.7h-3.38l4.4-14.4h4.27l4.46,14.4h-3.5l-1.11-3.7H52.94z M56.59,18.17l-0.9-3.05
			c-0.26-0.85-0.51-1.92-0.73-2.78h-0.04c-0.21,0.85-0.43,1.94-0.66,2.78l-0.85,3.05H56.59z"/>
	</g>
	<g class="st1">
		<path class="st2" d="M72.17,20.95c0,1.37,0.04,2.48,0.08,3.35h-2.82l-0.15-1.47h-0.06c-0.41,0.64-1.39,1.71-3.27,1.71
			c-2.11,0-3.67-1.33-3.67-4.55v-6.13h3.27v5.62c0,1.52,0.49,2.44,1.62,2.44c0.9,0,1.41-0.62,1.62-1.13
			c0.09-0.19,0.11-0.45,0.11-0.71v-6.22h3.27C72.17,13.86,72.17,20.95,72.17,20.95z"/>
	</g>
	<g class="st1">
		<path class="st2" d="M78.07,10.86v2.99h2.33v2.39h-2.33v3.78c0,1.26,0.3,1.84,1.28,1.84c0.41,0,0.73-0.04,0.96-0.08l0.02,2.46
			c-0.43,0.17-1.2,0.28-2.12,0.28c-1.05,0-1.92-0.36-2.44-0.9c-0.6-0.62-0.9-1.62-0.9-3.1v-4.27h-1.39v-2.39h1.39V11.6L78.07,10.86z
			"/>
	</g>
	<g class="st1">
		<path class="st2" d="M91.7,18.96c0,3.82-2.71,5.58-5.51,5.58c-3.05,0-5.4-2.01-5.4-5.38s2.22-5.53,5.58-5.53
			C89.56,13.62,91.7,15.82,91.7,18.96z M84.13,19.07c0,1.79,0.75,3.14,2.14,3.14c1.26,0,2.07-1.26,2.07-3.14
			c0-1.56-0.6-3.14-2.07-3.14C84.71,15.93,84.13,17.53,84.13,19.07z"/>
		<path class="st2" d="M92.7,9.13h3.25v5.96h0.04c0.34-0.45,0.77-0.79,1.28-1.07c0.47-0.26,1.09-0.41,1.69-0.41
			c2.07,0,3.65,1.43,3.65,4.57v6.11h-3.25v-5.75c0-1.37-0.47-2.31-1.69-2.31c-0.85,0-1.39,0.56-1.62,1.13
			c-0.09,0.21-0.11,0.49-0.11,0.73v6.2H92.7V9.13z"/>
		<path class="st2" d="M114.65,18.96c0,3.82-2.71,5.58-5.51,5.58c-3.05,0-5.4-2.01-5.4-5.38s2.22-5.53,5.58-5.53
			C112.52,13.62,114.65,15.82,114.65,18.96z M107.09,19.07c0,1.79,0.75,3.14,2.14,3.14c1.26,0,2.07-1.26,2.07-3.14
			c0-1.56-0.6-3.14-2.07-3.14C107.67,15.93,107.09,17.53,107.09,19.07z"/>
		<path class="st2" d="M125.62,20.95c0,1.37,0.04,2.48,0.09,3.35h-2.82l-0.15-1.47h-0.06c-0.41,0.64-1.39,1.71-3.27,1.71
			c-2.11,0-3.67-1.33-3.67-4.55v-6.13h3.27v5.62c0,1.52,0.49,2.44,1.62,2.44c0.9,0,1.41-0.62,1.62-1.13
			c0.09-0.19,0.11-0.45,0.11-0.71v-6.22h3.27v7.09H125.62z"/>
	</g>
	<g class="st1">
		<path class="st2" d="M127.13,21.46c0.6,0.36,1.84,0.79,2.8,0.79c0.98,0,1.39-0.34,1.39-0.88s-0.32-0.79-1.54-1.2
			c-2.16-0.73-2.99-1.9-2.97-3.14c0-1.94,1.67-3.42,4.25-3.42c1.22,0,2.31,0.28,2.95,0.6l-0.58,2.24c-0.47-0.26-1.37-0.6-2.26-0.6
			c-0.79,0-1.24,0.32-1.24,0.85c0,0.49,0.41,0.75,1.69,1.2c1.99,0.68,2.82,1.69,2.84,3.23c0,1.94-1.54,3.38-4.53,3.38
			c-1.37,0-2.58-0.3-3.38-0.73L127.13,21.46z"/>
		<path class="st2" d="M138.35,20.11c0.11,1.35,1.43,1.99,2.95,1.99c1.11,0,2.01-0.15,2.88-0.43l0.43,2.2
			c-1.07,0.43-2.37,0.64-3.78,0.64c-3.55,0-5.58-2.05-5.58-5.32c0-2.65,1.65-5.58,5.28-5.58c3.38,0,4.66,2.63,4.66,5.21
			c0,0.56-0.06,1.05-0.11,1.28h-6.73V20.11z M142.17,17.89c0-0.79-0.34-2.12-1.84-2.12c-1.37,0-1.92,1.24-2.01,2.12H142.17z"/>
	</g>
	<g class="st1">
		<path class="st2" d="M162.67,18.96c0,3.82-2.71,5.58-5.51,5.58c-3.05,0-5.4-2.01-5.4-5.38s2.22-5.53,5.58-5.53
			C160.53,13.62,162.67,15.82,162.67,18.96z M155.1,19.07c0,1.79,0.75,3.14,2.14,3.14c1.26,0,2.07-1.26,2.07-3.14
			c0-1.56-0.6-3.14-2.07-3.14C155.68,15.93,155.1,17.53,155.1,19.07z"/>
	</g>
	<g class="st1">
		<path class="st2" d="M164.18,24.3v-8.05h-1.37v-2.39h1.37v-0.41c0-1.26,0.38-2.65,1.32-3.5c0.81-0.77,1.94-1.05,2.88-1.05
			c0.73,0,1.28,0.09,1.73,0.21l-0.13,2.5c-0.28-0.08-0.62-0.15-1.05-0.15c-1.07,0-1.52,0.83-1.52,1.86v0.53h2.09v2.39h-2.07v8.05
			L164.18,24.3L164.18,24.3z"/>
	</g>
	<g class="st1">
		<path class="st2" d="M176.53,20.95c0.88,0.45,2.22,0.9,3.61,0.9c1.5,0,2.29-0.62,2.29-1.56c0-0.9-0.68-1.41-2.41-2.03
			c-2.39-0.83-3.95-2.16-3.95-4.25c0-2.46,2.05-4.34,5.45-4.34c1.62,0,2.82,0.34,3.67,0.73l-0.73,2.63
			c-0.58-0.28-1.6-0.68-3.01-0.68c-1.41,0-2.09,0.64-2.09,1.39c0,0.92,0.81,1.32,2.67,2.03c2.54,0.94,3.74,2.26,3.74,4.29
			c0,2.41-1.86,4.46-5.81,4.46c-1.64,0-3.27-0.43-4.08-0.88L176.53,20.95z"/>
	</g>
	<g class="st1">
		<path class="st2" d="M188.92,13.86l0.83,4.27c0.21,1.09,0.43,2.24,0.6,3.44h0.04c0.21-1.2,0.51-2.39,0.77-3.42l1.11-4.29h2.56
			l1.05,4.17c0.28,1.17,0.56,2.35,0.77,3.55h0.04c0.15-1.2,0.36-2.37,0.6-3.57l0.9-4.14h3.18l-3.2,10.45h-3.05l-0.98-3.67
			c-0.26-1.03-0.45-1.97-0.66-3.25h-0.04c-0.19,1.3-0.41,2.26-0.68,3.25l-1.05,3.67h-3.05l-3.03-10.45h3.29V13.86z"/>
		<path class="st2" d="M205.74,10.95c0,0.9-0.68,1.62-1.75,1.62c-1.03,0-1.71-0.73-1.69-1.62c-0.02-0.94,0.66-1.64,1.71-1.64
			S205.72,10.01,205.74,10.95z M202.38,24.3V13.86h3.25V24.3H202.38z"/>
	</g>
	<g class="st1">
		<path class="st2" d="M211.24,10.86v2.99h2.33v2.39h-2.33v3.78c0,1.26,0.3,1.84,1.28,1.84c0.41,0,0.73-0.04,0.96-0.08l0.02,2.46
			c-0.43,0.17-1.2,0.28-2.12,0.28c-1.05,0-1.92-0.36-2.43-0.9c-0.6-0.62-0.9-1.62-0.9-3.1v-4.27h-1.39v-2.39h1.39V11.6L211.24,10.86
			z"/>
	</g>
	<g class="st1">
		<path class="st2" d="M214.62,22.44l3.29-4.12c0.6-0.71,1.07-1.22,1.67-1.86v-0.04h-4.59v-2.56h8.54v1.94l-3.14,3.95
			c-0.58,0.68-1.11,1.35-1.71,1.92v0.04h5.02v2.58h-9.08L214.62,22.44L214.62,22.44z"/>
	</g>
	<g class="st1">
		<path class="st2" d="M227.11,20.11c0.11,1.35,1.43,1.99,2.95,1.99c1.11,0,2.01-0.15,2.88-0.43l0.43,2.2
			c-1.07,0.43-2.37,0.64-3.78,0.64c-3.55,0-5.58-2.05-5.58-5.32c0-2.65,1.64-5.58,5.28-5.58c3.38,0,4.66,2.63,4.66,5.21
			c0,0.56-0.06,1.05-0.11,1.28h-6.73V20.11z M230.93,17.89c0-0.79-0.34-2.12-1.84-2.12c-1.37,0-1.92,1.24-2.01,2.12H230.93z"/>
		<path class="st2" d="M235.26,17.29c0-1.54-0.04-2.54-0.08-3.44h2.8l0.11,1.92h0.08c0.53-1.52,1.82-2.16,2.82-2.16
			c0.3,0,0.45,0,0.68,0.04v3.05c-0.24-0.04-0.51-0.08-0.88-0.08c-1.2,0-2.01,0.64-2.22,1.64c-0.04,0.23-0.06,0.49-0.06,0.74v5.3
			h-3.25V17.29z"/>
		<path class="st2" d="M242.8,9.13h3.25V24.3h-3.25V9.13z"/>
	</g>
	<g class="st1">
		<path class="st2" d="M253.78,24.3l-0.19-1.05h-0.06c-0.68,0.83-1.75,1.28-2.99,1.28c-2.11,0-3.38-1.54-3.38-3.21
			c0-2.71,2.43-4.02,6.13-3.99v-0.15c0-0.56-0.3-1.35-1.9-1.35c-1.07,0-2.2,0.36-2.88,0.79l-0.6-2.09c0.73-0.41,2.16-0.92,4.06-0.92
			c3.48,0,4.59,2.05,4.59,4.51v3.63c0,1,0.04,1.96,0.15,2.54L253.78,24.3L253.78,24.3z M253.39,19.37
			c-1.71-0.02-3.03,0.38-3.03,1.64c0,0.83,0.56,1.24,1.28,1.24c0.81,0,1.47-0.53,1.69-1.2c0.04-0.17,0.06-0.36,0.06-0.56V19.37z"/>
		<path class="st2" d="M257.73,17.19c0-1.3-0.04-2.41-0.09-3.33h2.82l0.15,1.43h0.06c0.43-0.66,1.5-1.67,3.23-1.67
			c2.14,0,3.74,1.41,3.74,4.49v6.2h-3.25v-5.79c0-1.35-0.47-2.26-1.65-2.26c-0.9,0-1.43,0.62-1.64,1.22
			c-0.09,0.19-0.13,0.51-0.13,0.81v6.02h-3.25v-7.12H257.73z"/>
	</g>
	<g class="st1">
		<path class="st2" d="M279.67,9.13v12.05c0,1.17,0.04,2.41,0.08,3.12h-2.88l-0.15-1.54h-0.04c-0.66,1.17-1.92,1.77-3.27,1.77
			c-2.48,0-4.46-2.12-4.46-5.36c-0.02-3.52,2.18-5.55,4.68-5.55c1.28,0,2.29,0.45,2.76,1.18h0.04V9.13H279.67z M276.43,18.28
			c0-0.17-0.02-0.41-0.04-0.58c-0.19-0.88-0.9-1.6-1.9-1.6c-1.47,0-2.24,1.32-2.24,2.97c0,1.77,0.88,2.88,2.22,2.88
			c0.94,0,1.69-0.64,1.88-1.56c0.06-0.24,0.09-0.47,0.09-0.75v-1.36H276.43z"/>
	</g>
	<g class="st1">
		<path class="st2" d="M281.26,26.84c0.66-1.9,1.24-4.12,1.54-6.07l3.31-0.21c-0.71,2.18-1.67,4.42-2.69,6.09L281.26,26.84z"/>
	</g>
	<g class="st1">
		<path class="st2" d="M295.76,9.9v14.4h-3.27V9.9H295.76z"/>
		<path class="st2" d="M297.59,17.19c0-1.3-0.04-2.41-0.08-3.33h2.82l0.15,1.43h0.06c0.43-0.66,1.5-1.67,3.23-1.67
			c2.14,0,3.74,1.41,3.74,4.49v6.2h-3.25v-5.79c0-1.35-0.47-2.26-1.64-2.26c-0.9,0-1.43,0.62-1.65,1.22
			c-0.08,0.19-0.13,0.51-0.13,0.81v6.02h-3.25V17.19z"/>
		<path class="st2" d="M317.45,24.05c-0.58,0.26-1.67,0.47-2.91,0.47c-3.38,0-5.53-2.05-5.53-5.34c0-3.05,2.09-5.55,5.98-5.55
			c0.85,0,1.79,0.15,2.48,0.41l-0.51,2.41c-0.38-0.17-0.96-0.32-1.82-0.32c-1.71,0-2.82,1.22-2.8,2.93c0,1.92,1.28,2.93,2.86,2.93
			c0.77,0,1.37-0.13,1.86-0.32L317.45,24.05z"/>
	</g>
	<g class="st1">
		<path class="st2" d="M318.71,23.22c0-0.72,0.5-1.24,1.2-1.24s1.19,0.51,1.19,1.24c0,0.71-0.48,1.23-1.2,1.23
			C319.21,24.45,318.71,23.93,318.71,23.22z"/>
	</g>
</g>
<g class="st1">
	<path class="st2" d="M78.95,36.69c0.47,0.27,1.17,0.5,1.91,0.5c0.93,0,1.44-0.43,1.44-1.08c0-0.6-0.4-0.95-1.41-1.31
		c-1.3-0.47-2.13-1.16-2.13-2.3c0-1.29,1.08-2.27,2.79-2.27c0.86,0,1.49,0.19,1.9,0.4l-0.35,1.16c-0.28-0.15-0.83-0.38-1.57-0.38
		c-0.91,0-1.31,0.49-1.31,0.95c0,0.61,0.46,0.89,1.51,1.3c1.37,0.52,2.04,1.21,2.04,2.34c0,1.27-0.96,2.37-3,2.37
		c-0.83,0-1.7-0.23-2.13-0.49L78.95,36.69z"/>
	<path class="st2" d="M85.01,34.45c0-0.75-0.02-1.36-0.05-1.9h1.27l0.07,0.88h0.02c0.42-0.64,1.09-1.01,1.96-1.01
		c1.31,0,2.4,1.12,2.4,2.91c0,2.06-1.3,3.06-2.6,3.06c-0.71,0-1.31-0.3-1.61-0.76h-0.02v2.95h-1.44
		C85.01,40.58,85.01,34.45,85.01,34.45z M86.45,35.87c0,0.14,0.01,0.27,0.05,0.4c0.14,0.59,0.66,1.01,1.27,1.01
		c0.91,0,1.45-0.76,1.45-1.89c0-1.01-0.49-1.83-1.42-1.83c-0.6,0-1.15,0.43-1.29,1.07c-0.04,0.12-0.06,0.25-0.06,0.36V35.87z"/>
	<path class="st2" d="M92.88,35.81c0.04,1.03,0.84,1.48,1.76,1.48c0.67,0,1.15-0.09,1.58-0.26l0.21,1c-0.49,0.2-1.17,0.35-1.99,0.35
		c-1.85,0-2.94-1.14-2.94-2.88c0-1.58,0.96-3.07,2.79-3.07c1.85,0,2.46,1.52,2.46,2.78c0,0.27-0.02,0.48-0.05,0.61L92.88,35.81
		L92.88,35.81z M95.39,34.8c0.01-0.53-0.22-1.39-1.18-1.39c-0.89,0-1.27,0.81-1.32,1.39H95.39z"/>
	<path class="st2" d="M102.11,38.08c-0.3,0.14-0.9,0.29-1.62,0.29c-1.78,0-2.94-1.14-2.94-2.91c0-1.71,1.17-3.05,3.18-3.05
		c0.53,0,1.07,0.12,1.39,0.27l-0.26,1.08c-0.23-0.11-0.57-0.22-1.09-0.22c-1.1,0-1.76,0.81-1.75,1.85c0,1.17,0.76,1.84,1.75,1.84
		c0.5,0,0.86-0.11,1.14-0.22L102.11,38.08z"/>
	<path class="st2" d="M104.71,30.96c0,0.43-0.32,0.77-0.82,0.77c-0.48,0-0.8-0.34-0.8-0.77c0-0.45,0.33-0.79,0.81-0.79
		C104.4,30.17,104.7,30.51,104.71,30.96z M103.18,38.26v-5.71h1.45v5.71H103.18z"/>
	<path class="st2" d="M109.39,38.26l-0.09-0.63h-0.04c-0.35,0.45-0.95,0.76-1.69,0.76c-1.15,0-1.79-0.83-1.79-1.7
		c0-1.44,1.28-2.17,3.39-2.16v-0.09c0-0.38-0.15-1-1.16-1c-0.56,0-1.15,0.18-1.54,0.42l-0.28-0.94c0.42-0.26,1.16-0.5,2.06-0.5
		c1.83,0,2.36,1.16,2.36,2.4v2.06c0,0.52,0.02,1.02,0.08,1.37h-1.3V38.26z M109.2,35.47c-1.02-0.02-1.99,0.2-1.99,1.07
		c0,0.56,0.36,0.82,0.82,0.82c0.57,0,1-0.38,1.12-0.79c0.04-0.11,0.05-0.22,0.05-0.32C109.21,36.25,109.21,35.47,109.2,35.47z"/>
	<path class="st2" d="M112.13,29.94h1.45v8.32h-1.45V29.94z"/>
	<path class="st2" d="M116.68,30.96c0,0.43-0.32,0.77-0.82,0.77c-0.48,0-0.8-0.34-0.8-0.77c0-0.45,0.33-0.79,0.81-0.79
		C116.36,30.17,116.67,30.51,116.68,30.96z M115.14,38.26v-5.71h1.45v5.71H115.14z"/>
	<path class="st2" d="M117.61,37.43l2.14-2.74c0.29-0.35,0.54-0.63,0.84-0.96V33.7h-2.78v-1.15h4.54v0.88l-2.1,2.68
		c-0.28,0.34-0.55,0.67-0.84,0.97v0.02h3.01v1.15h-4.82L117.61,37.43L117.61,37.43z"/>
	<path class="st2" d="M124.96,30.96c0,0.43-0.32,0.77-0.82,0.77c-0.48,0-0.8-0.34-0.8-0.77c0-0.45,0.33-0.79,0.81-0.79
		C124.64,30.17,124.94,30.51,124.96,30.96z M123.42,38.26v-5.71h1.45v5.71H123.42z"/>
	<path class="st2" d="M126.42,34.25c0-0.66-0.01-1.21-0.05-1.7h1.27l0.07,0.86h0.04c0.25-0.45,0.87-0.98,1.82-0.98
		c1,0,2.03,0.64,2.03,2.45v3.39h-1.44v-3.22c0-0.82-0.3-1.44-1.09-1.44c-0.57,0-0.97,0.41-1.12,0.84c-0.05,0.13-0.06,0.3-0.06,0.47
		v3.35h-1.45v-4.02H126.42z"/>
	<path class="st2" d="M138.34,32.55c-0.02,0.39-0.05,0.86-0.05,1.64v3.23c0,1.2-0.25,2.05-0.84,2.59c-0.6,0.53-1.42,0.69-2.2,0.69
		c-0.73,0-1.5-0.15-1.99-0.46l0.32-1.09c0.36,0.21,0.97,0.43,1.66,0.43c0.94,0,1.64-0.49,1.64-1.72v-0.49h-0.02
		c-0.33,0.5-0.91,0.84-1.66,0.84c-1.42,0-2.43-1.17-2.43-2.79c0-1.88,1.22-3.01,2.59-3.01c0.87,0,1.38,0.42,1.65,0.89h0.02
		l0.06-0.76h1.25V32.55z M136.85,34.84c0-0.13-0.01-0.27-0.05-0.39c-0.15-0.53-0.56-0.93-1.17-0.93c-0.81,0-1.41,0.7-1.41,1.86
		c0,0.97,0.49,1.76,1.39,1.76c0.54,0,1.01-0.35,1.17-0.87c0.04-0.15,0.06-0.35,0.06-0.52v-0.91H136.85z"/>
	<path class="st2" d="M143.8,30.96c0,0.43-0.32,0.77-0.82,0.77c-0.48,0-0.8-0.34-0.8-0.77c0-0.45,0.33-0.79,0.81-0.79
		C143.49,30.17,143.79,30.51,143.8,30.96z M142.27,38.26v-5.71h1.45v5.71H142.27z"/>
	<path class="st2" d="M145.27,34.25c0-0.66-0.01-1.21-0.05-1.7h1.27l0.07,0.86h0.04c0.25-0.45,0.87-0.98,1.82-0.98
		c1,0,2.03,0.64,2.03,2.45v3.39h-1.44v-3.22c0-0.82-0.3-1.44-1.09-1.44c-0.57,0-0.97,0.41-1.12,0.84c-0.05,0.13-0.06,0.3-0.06,0.47
		v3.35h-1.45v-4.02H145.27z"/>
	<path class="st2" d="M158.88,34.76h-2.98v2.32h3.33v1.18h-4.77v-7.9h4.59v1.18h-3.15v2.04h2.98V34.76z"/>
	<path class="st2" d="M165.44,36.55c0,0.68,0.02,1.24,0.05,1.71h-1.27l-0.07-0.87h-0.02c-0.25,0.41-0.81,1-1.83,1
		c-1.04,0-1.99-0.62-1.99-2.48v-3.35h1.44v3.11c0,0.95,0.3,1.56,1.07,1.56c0.57,0,0.95-0.41,1.1-0.77c0.05-0.13,0.08-0.28,0.08-0.45
		v-3.45h1.44V36.55z"/>
	<path class="st2" d="M167,34.39c0-0.77-0.01-1.32-0.05-1.84h1.25l0.05,1.09h0.05c0.28-0.81,0.95-1.22,1.56-1.22
		c0.14,0,0.22,0.01,0.34,0.04v1.36c-0.12-0.02-0.25-0.05-0.42-0.05c-0.69,0-1.16,0.45-1.29,1.09c-0.02,0.13-0.05,0.28-0.05,0.45
		v2.95H167V34.39z"/>
	<path class="st2" d="M176.5,35.35c0,2.1-1.48,3.04-2.93,3.04c-1.62,0-2.86-1.11-2.86-2.94c0-1.88,1.23-3.02,2.95-3.02
		C175.36,32.42,176.5,33.62,176.5,35.35z M172.19,35.41c0,1.1,0.54,1.93,1.42,1.93c0.82,0,1.39-0.81,1.39-1.96
		c0-0.89-0.4-1.91-1.38-1.91C172.61,33.48,172.19,34.46,172.19,35.41z"/>
	<path class="st2" d="M177.68,34.45c0-0.75-0.02-1.36-0.05-1.9h1.27l0.07,0.88H179c0.42-0.64,1.09-1.01,1.96-1.01
		c1.31,0,2.4,1.12,2.4,2.91c0,2.06-1.3,3.06-2.6,3.06c-0.71,0-1.31-0.3-1.61-0.76h-0.02v2.95h-1.44V34.45z M179.12,35.87
		c0,0.14,0.01,0.27,0.05,0.4c0.14,0.59,0.66,1.01,1.27,1.01c0.91,0,1.45-0.76,1.45-1.89c0-1.01-0.49-1.83-1.42-1.83
		c-0.6,0-1.15,0.43-1.29,1.07c-0.04,0.12-0.06,0.25-0.06,0.36L179.12,35.87L179.12,35.87z"/>
	<path class="st2" d="M185.56,35.81c0.04,1.03,0.84,1.48,1.76,1.48c0.67,0,1.15-0.09,1.58-0.26l0.21,1
		c-0.49,0.2-1.17,0.35-1.99,0.35c-1.85,0-2.94-1.14-2.94-2.88c0-1.58,0.96-3.07,2.79-3.07c1.85,0,2.46,1.52,2.46,2.78
		c0,0.27-0.02,0.48-0.05,0.61L185.56,35.81L185.56,35.81z M188.07,34.8c0.01-0.53-0.22-1.39-1.18-1.39c-0.89,0-1.27,0.81-1.32,1.39
		H188.07z"/>
	<path class="st2" d="M193.8,38.26l-0.09-0.63h-0.04c-0.35,0.45-0.95,0.76-1.69,0.76c-1.15,0-1.79-0.83-1.79-1.7
		c0-1.44,1.28-2.17,3.39-2.16v-0.09c0-0.38-0.15-1-1.16-1c-0.56,0-1.15,0.18-1.54,0.42l-0.28-0.94c0.42-0.26,1.16-0.5,2.06-0.5
		c1.83,0,2.36,1.16,2.36,2.4v2.06c0,0.52,0.02,1.02,0.08,1.37h-1.3V38.26z M193.61,35.47c-1.02-0.02-1.99,0.2-1.99,1.07
		c0,0.56,0.36,0.82,0.82,0.82c0.57,0,1-0.38,1.12-0.79c0.04-0.11,0.05-0.22,0.05-0.32V35.47z"/>
	<path class="st2" d="M196.54,34.25c0-0.66-0.01-1.21-0.05-1.7h1.27l0.07,0.86h0.04c0.25-0.45,0.87-0.98,1.82-0.98
		c1,0,2.03,0.64,2.03,2.45v3.39h-1.44v-3.22c0-0.82-0.3-1.44-1.09-1.44c-0.57,0-0.97,0.41-1.12,0.84c-0.05,0.13-0.06,0.3-0.06,0.47
		v3.35h-1.45v-4.02H196.54z"/>
	<path class="st2" d="M207.31,36.02l-0.68,2.24h-1.49l2.53-7.9h1.84l2.57,7.9h-1.55l-0.71-2.24H207.31z M209.57,34.93l-0.62-1.95
		c-0.15-0.48-0.28-1.02-0.4-1.48h-0.02c-0.12,0.46-0.23,1.01-0.38,1.48l-0.61,1.95H209.57z"/>
	<path class="st2" d="M218.07,36.55c0,0.68,0.02,1.24,0.05,1.71h-1.27l-0.07-0.87h-0.02c-0.25,0.41-0.81,1-1.83,1
		c-1.04,0-1.99-0.62-1.99-2.48v-3.35h1.44v3.11c0,0.95,0.3,1.56,1.07,1.56c0.57,0,0.95-0.41,1.1-0.77c0.05-0.13,0.08-0.28,0.08-0.45
		v-3.45h1.44V36.55z"/>
	<path class="st2" d="M221.29,30.92v1.63h1.37v1.08h-1.37v2.52c0,0.69,0.19,1.05,0.74,1.05c0.25,0,0.43-0.04,0.56-0.07l0.02,1.1
		c-0.21,0.08-0.59,0.14-1.04,0.14c-0.53,0-0.97-0.18-1.24-0.47c-0.3-0.33-0.45-0.84-0.45-1.59v-2.68h-0.82v-1.08h0.82v-1.29
		L221.29,30.92z"/>
	<path class="st2" d="M229.1,35.35c0,2.1-1.48,3.04-2.93,3.04c-1.62,0-2.86-1.11-2.86-2.94c0-1.88,1.23-3.02,2.95-3.02
		C227.97,32.42,229.1,33.62,229.1,35.35z M224.8,35.41c0,1.1,0.54,1.93,1.42,1.93c0.82,0,1.39-0.81,1.39-1.96
		c0-0.89-0.4-1.91-1.38-1.91C225.21,33.48,224.8,34.46,224.8,35.41z"/>
	<path class="st2" d="M230.22,36.93c0.33,0.2,0.95,0.41,1.46,0.41c0.63,0,0.91-0.26,0.91-0.63c0-0.39-0.23-0.59-0.94-0.83
		c-1.11-0.39-1.58-1-1.57-1.66c0-1.01,0.83-1.79,2.16-1.79c0.63,0,1.18,0.16,1.51,0.34l-0.28,1.02c-0.25-0.14-0.7-0.33-1.21-0.33
		c-0.52,0-0.8,0.25-0.8,0.6c0,0.36,0.27,0.54,1,0.8c1.03,0.38,1.51,0.9,1.52,1.75c0,1.03-0.81,1.78-2.32,1.78
		c-0.69,0-1.31-0.16-1.73-0.4L230.22,36.93z"/>
	<path class="st2" d="M237.63,36.69c0.47,0.27,1.17,0.5,1.91,0.5c0.93,0,1.44-0.43,1.44-1.08c0-0.6-0.4-0.95-1.41-1.31
		c-1.3-0.47-2.13-1.16-2.13-2.3c0-1.29,1.08-2.27,2.79-2.27c0.86,0,1.49,0.19,1.9,0.4l-0.35,1.16c-0.28-0.15-0.83-0.38-1.57-0.38
		c-0.91,0-1.31,0.49-1.31,0.95c0,0.61,0.46,0.89,1.51,1.3c1.37,0.52,2.04,1.21,2.04,2.34c0,1.27-0.96,2.37-3,2.37
		c-0.83,0-1.7-0.23-2.13-0.49L237.63,36.69z"/>
	<path class="st2" d="M245.22,30.96c0,0.43-0.32,0.77-0.82,0.77c-0.48,0-0.8-0.34-0.8-0.77c0-0.45,0.33-0.79,0.81-0.79
		C244.91,30.17,245.21,30.51,245.22,30.96z M243.69,38.26v-5.71h1.45v5.71H243.69z"/>
	<path class="st2" d="M246.69,34.25c0-0.66-0.01-1.21-0.05-1.7h1.27l0.07,0.86h0.04c0.25-0.45,0.87-0.98,1.82-0.98
		c1,0,2.03,0.64,2.03,2.45v3.39h-1.44v-3.22c0-0.82-0.3-1.44-1.09-1.44c-0.57,0-0.97,0.41-1.12,0.84c-0.05,0.13-0.06,0.3-0.06,0.47
		v3.35h-1.45v-4.02H246.69z"/>
	<path class="st2" d="M257.59,38.08c-0.3,0.14-0.9,0.29-1.62,0.29c-1.78,0-2.94-1.14-2.94-2.91c0-1.71,1.17-3.05,3.18-3.05
		c0.53,0,1.07,0.12,1.39,0.27l-0.26,1.08c-0.23-0.11-0.57-0.22-1.09-0.22c-1.1,0-1.76,0.81-1.75,1.85c0,1.17,0.76,1.84,1.75,1.84
		c0.5,0,0.86-0.11,1.14-0.22L257.59,38.08z"/>
	<path class="st2" d="M259.57,35.81c0.04,1.03,0.84,1.48,1.76,1.48c0.67,0,1.15-0.09,1.58-0.26l0.21,1
		c-0.49,0.2-1.17,0.35-1.99,0.35c-1.85,0-2.94-1.14-2.94-2.88c0-1.58,0.96-3.07,2.79-3.07c1.85,0,2.46,1.52,2.46,2.78
		c0,0.27-0.02,0.48-0.05,0.61L259.57,35.81L259.57,35.81z M262.08,34.8c0.01-0.53-0.22-1.39-1.18-1.39c-0.89,0-1.27,0.81-1.32,1.39
		H262.08z"/>
	<path class="st2" d="M269.02,31.94H269l-1.39,0.7l-0.25-1.09l1.85-0.91h1.21v7.62h-1.39L269.02,31.94L269.02,31.94z"/>
	<path class="st2" d="M273.62,37.23c0.22,0.02,0.45,0.01,0.8-0.02c0.56-0.05,1.12-0.25,1.55-0.59c0.49-0.4,0.83-0.97,0.97-1.69
		l-0.02-0.01c-0.39,0.43-0.93,0.68-1.66,0.68c-1.32,0-2.31-0.96-2.31-2.37c0-1.45,1.12-2.72,2.75-2.72c1.77,0,2.72,1.39,2.72,3.25
		c0,1.63-0.54,2.79-1.32,3.54c-0.67,0.62-1.58,0.97-2.6,1.04c-0.33,0.04-0.66,0.04-0.87,0.02L273.62,37.23L273.62,37.23z
		 M274.37,33.15c0.01,0.79,0.46,1.39,1.25,1.39c0.59,0,1.01-0.27,1.23-0.63c0.05-0.09,0.08-0.21,0.08-0.41
		c0.01-1.03-0.38-1.92-1.31-1.92C274.9,31.58,274.37,32.22,274.37,33.15z"/>
	<path class="st2" d="M279.22,36.3c0-0.95,0.55-1.59,1.43-1.98v-0.04c-0.8-0.39-1.16-1.02-1.16-1.69c0-1.24,1.1-2.09,2.54-2.09
		c1.64,0,2.39,0.98,2.39,1.92c0,0.64-0.34,1.31-1.17,1.72v0.04c0.83,0.32,1.45,0.97,1.45,1.92c0,1.36-1.15,2.27-2.78,2.27
		C280.14,38.39,279.22,37.37,279.22,36.3z M283.24,36.23c0-0.77-0.57-1.2-1.42-1.43c-0.71,0.21-1.12,0.7-1.12,1.34
		c-0.02,0.64,0.47,1.23,1.28,1.23C282.73,37.37,283.24,36.89,283.24,36.23z M280.86,32.54c0,0.62,0.52,1,1.24,1.2
		c0.52-0.15,0.95-0.57,0.95-1.15c0-0.53-0.32-1.08-1.09-1.08C281.23,31.51,280.86,31.99,280.86,32.54z"/>
	<path class="st2" d="M290.98,34.4c0,2.45-0.96,3.98-2.78,3.98c-1.76,0-2.7-1.59-2.71-3.91c0-2.37,1.01-3.96,2.79-3.96
		C290.13,30.51,290.98,32.15,290.98,34.4z M286.95,34.47c-0.01,1.85,0.5,2.81,1.3,2.81c0.84,0,1.29-1.03,1.29-2.86
		c0-1.77-0.42-2.81-1.29-2.81C287.48,31.61,286.94,32.56,286.95,34.47z"/>
</g>
<polygon class="st2" points="36.98,19.14 26.75,19.14 26.75,8.91 17.65,8.91 17.65,19.14 7.42,19.14 7.42,28.24 17.65,28.24 
	17.65,38.47 26.75,38.47 26.75,28.24 36.98,28.24 "/>
<polygon class="st2" points="359.08,19.14 348.85,19.14 348.85,8.91 339.76,8.91 339.76,19.14 329.53,19.14 329.53,28.24 
	339.76,28.24 339.76,38.47 348.85,38.47 348.85,28.24 359.08,28.24 "/>
</svg>
