<?xml version="1.0" encoding="utf-8"?>
<!-- Generator: Adobe Illustrator 24.3.0, SVG Export Plug-In . SVG Version: 6.00 Build 0)  -->
<svg version="1.1" id="Layer_1" xmlns="http://www.w3.org/2000/svg" xmlns:xlink="http://www.w3.org/1999/xlink" x="0px" y="0px"
	 viewBox="0 0 64 64" style="enable-background:new 0 0 64 64;" xml:space="preserve">
<style type="text/css">
	.st0{fill:#FFFFFF;}
</style>
<g>
	<rect x="39.77" y="41.2" class="st0" width="1.67" height="1.5"/>
	<path class="st0" d="M41.94,33.93v-2.19l3.84,1.04l0.39-1.45l-13.83-3.74l-0.39,1.45l4.47,1.21v3.68h-5.58v-1.24h-3.01v-6.34
		c0-1.39-1.13-2.52-2.52-2.52H13.88c-1.39,0-2.52,1.13-2.52,2.52v23.86c0,1.39,1.13,2.52,2.52,2.52H25.3c1.39,0,2.52-1.13,2.52-2.52
		v-6.27h3.01V42.7h7.44v-1.5h-7.44v-5.77h20.31v5.77h-8.2v1.5h9.7v-8.77H41.94z M13.88,51.24c-0.56,0-1.02-0.46-1.02-1.02v-2.09
		l3.12,3.12L13.88,51.24L13.88,51.24z M26.33,50.21c0,0.56-0.46,1.02-1.02,1.02h-2.13l3.16-3.16v2.14H26.33z M26.33,45.96
		l-5.28,5.28H18.1L12.86,46v-3.14l4.22,4.22l1.06-1.06l-5.28-5.28V37.6l4.22,4.22l1.06-1.06l-5.28-5.28v-3.14l4.22,4.22l1.06-1.06
		l-5.28-5.28v-3.14l4.22,4.22l1.06-1.06l-4.77-4.77c0.15-0.09,0.32-0.16,0.51-0.16H25.3c0.18,0,0.34,0.06,0.49,0.14L21,30.25
		l1.06,1.06l4.26-4.26v3.14L21,35.51l1.06,1.06l4.26-4.26v0.38l0,0v2.76L21,40.77l1.06,1.06l4.26-4.26v3.14L21,46.02l1.06,1.06
		l4.26-4.26v1.12l0,0v2.02H26.33z M27.83,34.19h1.51v8.26h-1.51V34.19z M37.91,30.65l2.53,0.68v2.59h-2.53V30.65z"/>
	<path class="st0" d="M33.49,16.36h2.93v2.19l-4.08-1.1l-0.39,1.45l13.83,3.74l0.39-1.45l-4.23-1.14v-3.68h2.83
		c0.92,0,1.67-0.75,1.67-1.67v-1.76c0-0.92-0.75-1.67-1.67-1.67H33.49c-0.92,0-1.67,0.75-1.67,1.67v1.76
		C31.82,15.62,32.57,16.36,33.49,16.36z M40.44,19.64l-2.53-0.68v-2.59h2.53V19.64z M33.32,12.93c0-0.09,0.08-0.17,0.17-0.17h11.28
		c0.09,0,0.17,0.08,0.17,0.17v1.76c0,0.09-0.08,0.17-0.17,0.17H33.49c-0.09,0-0.17-0.08-0.17-0.17
		C33.32,14.69,33.32,12.93,33.32,12.93z"/>
	
		<rect x="38.32" y="16.25" transform="matrix(0.2606 -0.9655 0.9655 0.2606 6.2747 55.0322)" class="st0" width="1.5" height="14.33"/>
	
		<rect x="38.31" y="19.64" transform="matrix(0.2608 -0.9654 0.9654 0.2608 3.001 57.5229)" class="st0" width="1.5" height="14.33"/>
</g>
</svg>
